<?xml version="1.0" encoding="utf-8"?>
<!-- Generator: Adobe Illustrator 18.0.0, SVG Export Plug-In . SVG Version: 6.00 Build 0)  -->
<!DOCTYPE svg PUBLIC "-//W3C//DTD SVG 1.1//EN" "http://www.w3.org/Graphics/SVG/1.1/DTD/svg11.dtd">
<svg version="1.1" id="Layer_1" xmlns="http://www.w3.org/2000/svg" xmlns:xlink="http://www.w3.org/1999/xlink" x="0px" y="0px"
	 width="1637.2px" height="397.6px" viewBox="0 0 1637.2 397.6" enable-background="new 0 0 1637.2 397.6" xml:space="preserve">
<linearGradient id="SVGID_1_" gradientUnits="userSpaceOnUse" x1="1902.0251" y1="2679.4192" x2="781.9631" y2="-449.0295" gradientTransform="matrix(1 0 0 -1 0 398)">
	<stop  offset="1.230000e-02" style="stop-color:#EBF2D4"/>
	<stop  offset="1" style="stop-color:#92E1E1"/>
</linearGradient>
<path fill="url(#SVGID_1_)" d="M1174.4,392.6l-0.1-11.6l-45.5,0.2l-0.1-17.7l-0.1-12.6l-33.4,0.2l0.1,12.6h-4.6l-0.2-40.7l-17.9,0.1
	l0.2,40.7h-10.5l-0.3-55.2l-34.1,24.2l-0.2-93.9h-6.1l-0.1-14.4h-7.4l-0.1-24.6h-5.3l0.1,24.6h-6.3l0.1,14.4h-5.7L997,262l-10.3-6
	l0.3,57.4l-14.6,9.1l0.1,14.1l-14.1,0.1l-0.3-54.6l-48.8,0.2l0.1,25.4l-16.2,0.1l-0.4-90.9l-43.1,39.8l0.4,80.5l-24.1,0.1l-0.3-51.8
	l-30-10.9l0.2,35.1l-8.5,0v-49.1H763v24.7h-24.3v16.7h-4.5c0,0-0.4,51.8-0.3,95.5h453.3v-5.2L1174.4,392.6z M776.8,309.7h10.5H776.8
	L776.8,309.7z"/>
<linearGradient id="SVGID_2_" gradientUnits="userSpaceOnUse" x1="2320.9238" y1="2677.6045" x2="1219.1906" y2="-445.709" gradientTransform="matrix(1 0 0 -1 0 398)">
	<stop  offset="1.230000e-02" style="stop-color:#EBF2D4"/>
	<stop  offset="1" style="stop-color:#92E1E1"/>
</linearGradient>
<path fill="url(#SVGID_2_)" d="M1614.2,392.6l-0.1-11.6l-45.5,0.2l-0.1-17.7l-0.1-12.6l-8.1,0v-52.2h-9.8v-39.9h-23.2V323l-14.9,0.1
	l0.2,40.7h-10.5l-0.3-55.2l-34.1-38.2l-0.2,13.5V280l-0.2-41.1h-6v-14.4h-7.4l-0.1-24.6h-5.3l0.1,24.6h-6.3l0.1,14.4h-5.6
	l-10.3,17.1l0.3,57.4l-14.6,9.1l0.1,14.1l-14.1,0.1l-0.3-54.6l-31,0.1v-50.9h-28.4v76.4l-5.5,0l-0.4-90.9h-43.1l0.4,120.3l-24.1,0.1
	l-0.3-65.7l-6.5-2.3v-20.1h-4.2v18.6l-7.5-2.7v-15.9h-4.2v14.4l-7.7-2.8l0.2,49l-19.1,0.1l-0.2-44.2h-4.9l-0.1-16.7l-3.3,0
	c-0.1-3.4-2.8-6.2-6.3-6.2c-3.4,0-6.2,2.8-6.3,6.2l-2,0c0-3.4-2.8-6.2-6.3-6.2c-3.5,0-6.3,2.8-6.3,6.3c0,0,0,0,0,0.1l-2.7,0
	l0.1,16.7h-4.5c0,0-0.4,88.2-0.3,131.8H1627v-5.2L1614.2,392.6z"/>
<linearGradient id="SVGID_3_" gradientUnits="userSpaceOnUse" x1="-582.8173" y1="2358.4089" x2="420.1216" y2="-398.0428" gradientTransform="matrix(1 0 0 -1 0 398)">
	<stop  offset="1.230000e-02" style="stop-color:#EBF2D4"/>
	<stop  offset="1" style="stop-color:#92E1E1"/>
</linearGradient>
<path fill="url(#SVGID_3_)" d="M450.2,282.6h-4.5l-0.1-16.7l-33,0.2l0.1,16.7h-4.9L408,327l-19.1,0.1l-0.3-49l-29.9,11.2L359,355
	l-24.1,0.1l-0.4-80.5L291,235.2l0.5,90.9l-16.2,0.1l-0.1-25.4l-8.6,0.1c0.1-0.6,0.1-1.2,0.1-1.8c0-9.6-7.8-17.4-17.4-17.4
	s-17.4,7.8-17.4,17.4c0,0.7,0,1.3,0.1,2l-5.6,0l0.3,54.6l-14.1,0.1l-0.1-14.1l-14.7-8.9l-0.3-52.4l-10.2,1.1l-0.1-23.1h-5.7
	l-0.1-14.4h-6.3h-5.3h-7.4l0.1,14.4h-5.9l0.5,93.9l-34.3-23.8l0.3,55.2l-10.5,0.1l-0.2-40.7l-17.9,0.1l0.2,40.7h-4.6L90,371.3
	l-33.4,0.2l0.1,12.6l0.1,13.5h394.1C450.7,354.5,450.2,282.6,450.2,282.6z"/>
<g>
	<g>
		<rect x="2068.7" y="368.8" fill="#FFC356" width="202.4" height="5.8"/>
	</g>
	<g>
		<rect x="1903.2" y="368.8" fill="#FFC356" width="131.3" height="5.8"/>
	</g>
	<g>
		<rect x="2306.4" y="368.8" fill="#FFC356" width="131.3" height="5.8"/>
	</g>
	<g>
		<g>
			<rect x="2068.7" y="362.4" fill="#FFC356" width="202.4" height="2.6"/>
		</g>
		<g>
			<rect x="1903.2" y="362.4" fill="#FFC356" width="131.3" height="2.6"/>
		</g>
		<g>
			<rect x="2306.4" y="362.4" fill="#FFC356" width="131.3" height="2.6"/>
		</g>
	</g>
	<g>
		<rect x="2182.7" y="347.9" fill="#E5951E" width="3" height="23.8"/>
	</g>
	<g>
		<rect x="2166.5" y="352.9" fill="#E5951E" width="3" height="18.7"/>
	</g>
	<g>
		<rect x="2151.4" y="347.9" fill="#E5951E" width="3" height="23.7"/>
	</g>
	<path fill="#EBA91E" d="M2406.5,355.1v-3c-2.1,0-4.3-0.1-6.4-0.2l-0.6-2.2c-2.1,0.5-4.3,1-6.6,1.3c-6.2-1-12.1-2.8-17.8-5.3v-0.4
		h-0.9c-5.4-2.4-10.5-5.5-15.4-9.3v-0.2h-0.3c-11.4-8.8-21.6-21.2-30.4-37c-14.7-26.6-19.9-53.6-20-53.8l-2.9-0.1
		c-0.1,0.2-4.9,18.5-16.8,39.7c-10.9-21.2-15.7-39.5-15.7-39.7l-2.9,0c-0.1,0.2-6.3,23.6-22.1,48.2h-0.6v1c-0.9,1.4-1.9,2.8-2.8,4.2
		c-14.6,21-38.9,45.5-75.8,51.7c-36.6-6.2-60.2-30.7-74.1-51.6c-1.7-2.5-3.2-5-4.7-7.5v-0.5h-0.3c-13.7-23.5-18.9-45.2-19-45.4h-2.9
		c-0.1,0.2-4.5,19-16.2,40.5c-11.5-21.6-15.8-40.3-15.8-40.5l-2.9,0c-0.1,0.3-6.7,27-24.4,53.4c-14.1,21-38,45.5-74.7,51.7
		c-5.2-0.9-10.3-2.1-15.1-3.7l-1,2.8c2.3,0.8,4.6,1.4,7,2c-2.9,0.2-5.8,0.4-8.8,0.4v3c6.3,0,12.3-0.5,18-1.4c5.9,1,11.9,1.4,18,1.4
		c4,0,7.9-0.2,11.7-0.6v17.8h3v-18.2c4.7-0.6,9.1-1.5,13.4-2.7v20.9h3V350c4.5-1.4,8.8-3,12.9-4.9v26.6h3v-28
		c4.8-2.4,9.4-5.1,13.6-8.1v36.1h3v-38.2c13.4-10,23.6-22.3,31.1-33.6c1.8-2.8,3.6-5.6,5.2-8.4c1.6,2.8,3.3,5.6,5.1,8.3
		c7.3,11.2,17.2,23.3,30.4,33.2v38.6h3v-36.4c4.2,2.9,8.6,5.7,13.4,8.1v28.3h3v-26.8c4,1.9,8.2,3.5,12.6,4.9v22h3v-21.1
		c4.2,1.2,8.7,2.1,13.4,2.8v18.3h3v-17.9c4,0.4,8.2,0.7,12.5,0.7c6.3,0,12.4-0.5,18.1-1.5c6.3,1,12.4,1.5,17.9,1.5
		c4,0,7.9-0.2,11.7-0.6v17.9h3v-18.2c4.6-0.6,9.1-1.5,13.4-2.6v20.8h3V350c4.5-1.3,8.8-3,12.9-4.8v26.5h3v-27.9
		c4.8-2.4,9.4-5,13.6-7.9v35.8h3v-37.9c13.9-10.1,24.5-22.5,32.3-33.9c2.1-3.1,4.1-6.2,5.9-9.2c1.7,3.1,3.6,6.3,5.5,9.5
		c8.9,14.3,19,26,29.9,34.8v36.7h3v-34.4c4.3,3.2,8.8,6,13.4,8.4v25.9h3v-24.5c4.1,1.9,8.3,3.5,12.6,4.7v19.8h3v-19
		c4.4,1.1,8.8,1.8,13.4,2.1v16.8h3V355c1.2,0,2.3,0.1,3.5,0.1c3.2,0,6.5-0.2,9.7-0.5v17.1h3v-17.4c0.6-0.1,1.1-0.1,1.6-0.2
		C2397.5,354.7,2402,355.1,2406.5,355.1z M1951.5,351.4c-3,0-6-0.1-8.9-0.4c7.4-1.9,14.3-4.5,20.6-7.7v7.4
		C1959.4,351.2,1955.5,351.4,1951.5,351.4z M1966.2,350.4v-8.6c4.8-2.6,9.2-5.5,13.4-8.6v14.5
		C1975.3,348.9,1970.8,349.8,1966.2,350.4z M1982.5,346.8v-15.6h-0.4c4.9-3.9,9.3-8,13.3-12.2v22.8
		C1991.4,343.7,1987.1,345.4,1982.5,346.8z M1998.4,340.3v-23.5h-1c5.1-5.6,9.5-11.4,13.2-16.9c0.5-0.7,0.9-1.4,1.4-2.1v34.2
		C2007.8,335,2003.3,337.8,1998.4,340.3z M2043.6,298.2c-7,10.5-16.4,21.9-28.6,31.4V293h0c10.5-17.4,16.4-34,19-42.2
		c2.2,7.5,7,22,15.6,37.7C2047.8,291.7,2045.8,295,2043.6,298.2z M2059,298.3c-2.1-3.3-4.1-6.6-5.9-9.8c8.8-15.7,13.7-30.3,16-37.7
		c2.4,7.9,7.9,23.9,17.7,40.8v37.9C2076.5,321.4,2067.3,311,2059,298.3z M2089.8,331.8v-35.3c0.7,1.1,1.4,2.2,2.1,3.3
		c3.6,5.5,7.4,10.4,11.2,14.9v25.4C2098.5,337.8,2094.1,335,2089.8,331.8z M2106.2,341.7v-23.5c4.1,4.5,8.3,8.5,12.6,11.9v16.5
		C2114.4,345.3,2110.2,343.7,2106.2,341.7z M2121.7,347.6v-15.1c4.4,3.4,8.9,6.3,13.4,8.8v9.1
		C2130.5,349.7,2126.1,348.8,2121.7,347.6z M2150.6,351.4c-4.2,0-8.4-0.2-12.5-0.7v-7.9c7.3,3.7,14.5,6.4,21.5,8.2
		C2156.7,351.3,2153.6,351.4,2150.6,351.4z M2186.6,351.4c-3,0-6-0.1-8.9-0.4c7.4-1.9,14.3-4.5,20.6-7.6v7.4
		C2194.5,351.2,2190.6,351.4,2186.6,351.4z M2201.3,350.4v-8.5c4.8-2.5,9.2-5.4,13.4-8.4v14.2
		C2210.4,348.9,2205.9,349.8,2201.3,350.4z M2217.7,346.8v-15.6c4.7-3.7,9-7.6,12.9-11.6v22.2
		C2226.5,343.8,2222.2,345.4,2217.7,346.8z M2233.6,340.4v-23.9c5.1-5.5,9.5-11.2,13.2-16.6c0.1-0.2,0.2-0.4,0.4-0.5v32.8
		C2243,335.2,2238.4,338,2233.6,340.4z M2280,298.2c-7.3,10.7-17.2,22.2-29.9,31.8v-35.2c11.8-18.4,18.4-36.2,21.1-44.4
		c2.2,7.2,7.2,21.5,15.5,37.2C2284.7,291.1,2282.5,294.7,2280,298.2z M2296.5,298.7c-2.3-3.7-4.4-7.4-6.3-11
		c8.7-15.3,13.9-29.2,16.3-36.6c2.2,8.9,7.5,27.3,17.4,46.1v34C2312.4,321.3,2303.3,309.5,2296.5,298.7z M2326.9,333.5v-31
		c4.3,7.5,9,14.2,14,20.1h-0.6v19.7C2335.5,339.8,2331.1,336.8,2326.9,333.5z M2343.3,343.9v-18.5c4,4.4,8.2,8.4,12.6,11.9v11.5
		C2351.4,347.5,2347.3,345.8,2343.3,343.9z M2358.8,349.6v-10.1c4.3,3.1,8.7,5.8,13.4,7.9v4.4
		C2367.6,351.5,2363.1,350.7,2358.8,349.6z M2375.2,352v-3.2c2.9,1.2,5.8,2.3,8.8,3.1c-1.8,0.1-3.6,0.2-5.3,0.2
		C2377.5,352.1,2376.4,352.1,2375.2,352z"/>
	<g>
		<path fill="#FFC356" d="M2302.7,246.5v6h-28.1v-6h-7.4v141.6h7.4v-7.4l14.1-6.2l14.1,6.2v7.4h7.4V246.5H2302.7z M2302.7,258v15.3
			h-28.1V258H2302.7z M2274.6,356.8V342h28.1v14.8H2274.6z M2301.4,364.7l-12.8,5.7l-12.8-5.7H2301.4z M2274.6,336.6v-15.2h28.1
			v15.2H2274.6z M2274.6,315.9v-16.2h28.1v16.2H2274.6z M2274.6,294.3v-15.5h28.1v15.5H2274.6z M2274.6,376.6v-8.3l9.4,4.1
			L2274.6,376.6z M2302.7,376.6l-9.4-4.1l9.4-4.1V376.6z"/>
	</g>
	<g>
		<path fill="#FFC356" d="M2065.5,246.5v6h-28.1v-6h-7.4v141.6h7.4v-7.4l14.1-6.2l14.1,6.2v7.4h7.4V246.5H2065.5z M2065.5,258v15.3
			h-28.1V258H2065.5z M2037.4,356.8V342h28.1v14.8H2037.4z M2064.2,364.7l-12.8,5.7l-12.8-5.7H2064.2z M2037.4,336.6v-15.2h28.1
			v15.2H2037.4z M2037.4,315.9v-16.2h28.1v16.2H2037.4z M2037.4,294.3v-15.5h28.1v15.5H2037.4z M2037.4,376.6v-8.3l9.4,4.1
			L2037.4,376.6z M2065.5,376.6l-9.4-4.1l9.4-4.1V376.6z"/>
	</g>
	<rect x="2026.3" y="388.1" fill="#FFC356" width="15.7" height="5.3"/>
	<rect x="2060.9" y="388.1" fill="#FFC356" width="15.7" height="5.3"/>
	<rect x="2263.5" y="388.1" fill="#FFC356" width="15.7" height="5.3"/>
	<rect x="2298.1" y="388.1" fill="#FFC356" width="15.7" height="5.3"/>
	<g>
		<rect x="2037.4" y="356.8" fill="#E1A538" width="2" height="8.2"/>
		<rect x="2037.4" y="336.9" fill="#E1A538" width="2" height="5.2"/>
		<rect x="2037.4" y="316" fill="#E1A538" width="2" height="5.2"/>
		<rect x="2037.4" y="294.3" fill="#E1A538" width="2" height="5.2"/>
		<rect x="2037.4" y="273.5" fill="#E1A538" width="2" height="5.2"/>
		<rect x="2037.4" y="252.6" fill="#E1A538" width="2" height="5.2"/>
	</g>
	<g>
		<rect x="2274.9" y="356.8" fill="#E1A538" width="2" height="8.2"/>
		<rect x="2274.9" y="336.9" fill="#E1A538" width="2" height="5.2"/>
		<rect x="2274.9" y="316" fill="#E1A538" width="2" height="5.2"/>
		<rect x="2274.9" y="294.3" fill="#E1A538" width="2" height="5.2"/>
		<rect x="2274.9" y="273.5" fill="#E1A538" width="2" height="5.2"/>
		<rect x="2274.9" y="252.6" fill="#E1A538" width="2" height="5.2"/>
	</g>
	<rect x="2040.9" y="254.1" fill="#E5951E" width="4.2" height="2.3"/>
	<rect x="2049.3" y="254.1" fill="#E5951E" width="4.2" height="2.3"/>
	<rect x="2057.8" y="254.1" fill="#E5951E" width="4.2" height="2.3"/>
	<rect x="2040.9" y="295.7" fill="#E5951E" width="4.2" height="2.2"/>
	<rect x="2049.3" y="295.7" fill="#E5951E" width="4.2" height="2.2"/>
	<rect x="2057.8" y="295.7" fill="#E5951E" width="4.2" height="2.2"/>
	<g>
		<rect x="2040.9" y="317.4" fill="#E5951E" width="4.2" height="2.2"/>
		<rect x="2049.3" y="317.4" fill="#E5951E" width="4.2" height="2.2"/>
		<rect x="2057.8" y="317.4" fill="#E5951E" width="4.2" height="2.2"/>
	</g>
	<g>
		<rect x="2040.9" y="338.3" fill="#E5951E" width="4.2" height="2.2"/>
		<rect x="2049.3" y="338.3" fill="#E5951E" width="4.2" height="2.2"/>
		<rect x="2057.8" y="338.3" fill="#E5951E" width="4.2" height="2.2"/>
	</g>
	<g>
		<rect x="2278.1" y="338.3" fill="#E5951E" width="4.2" height="2.2"/>
		<rect x="2286.6" y="338.3" fill="#E5951E" width="4.2" height="2.2"/>
		<rect x="2295" y="338.3" fill="#E5951E" width="4.2" height="2.2"/>
	</g>
	<g>
		<rect x="2278.1" y="360.8" fill="#E5951E" width="4.2" height="2.2"/>
		<rect x="2286.6" y="360.8" fill="#E5951E" width="4.2" height="2.2"/>
		<rect x="2295" y="360.8" fill="#E5951E" width="4.2" height="2.2"/>
	</g>
	<g>
		<rect x="2278.1" y="317.4" fill="#E5951E" width="4.2" height="2.2"/>
		<rect x="2286.6" y="317.4" fill="#E5951E" width="4.2" height="2.2"/>
		<rect x="2295" y="317.4" fill="#E5951E" width="4.2" height="2.2"/>
	</g>
	<g>
		<rect x="2278.1" y="295.7" fill="#E5951E" width="4.2" height="2.2"/>
		<rect x="2286.6" y="295.7" fill="#E5951E" width="4.2" height="2.2"/>
		<rect x="2295" y="295.7" fill="#E5951E" width="4.2" height="2.2"/>
	</g>
	<g>
		<rect x="2278.1" y="274.9" fill="#E5951E" width="4.2" height="2.2"/>
		<rect x="2286.6" y="274.9" fill="#E5951E" width="4.2" height="2.2"/>
		<rect x="2295" y="274.9" fill="#E5951E" width="4.2" height="2.2"/>
	</g>
	<g>
		<rect x="2278.1" y="254.1" fill="#E5951E" width="4.2" height="2.2"/>
		<rect x="2286.6" y="254.1" fill="#E5951E" width="4.2" height="2.2"/>
		<rect x="2295" y="254.1" fill="#E5951E" width="4.2" height="2.2"/>
	</g>
	<g>
		<rect x="2040.9" y="360.7" fill="#E5951E" width="4.2" height="2.2"/>
		<rect x="2049.3" y="360.7" fill="#E5951E" width="4.2" height="2.2"/>
		<rect x="2057.8" y="360.7" fill="#E5951E" width="4.2" height="2.2"/>
	</g>
	<rect x="2040.9" y="274.9" fill="#E5951E" width="4.2" height="2.2"/>
	<rect x="2049.3" y="274.9" fill="#E5951E" width="4.2" height="2.2"/>
	<rect x="2057.8" y="274.9" fill="#E5951E" width="4.2" height="2.2"/>
	<g>
		<rect x="2032.1" y="249.1" fill="#E5951E" width="1" height="27"/>
		<rect x="2034.5" y="249.1" fill="#E5951E" width="1" height="27"/>
	</g>
	<g>
		<rect x="2032.1" y="279.5" fill="#E5951E" width="1" height="17.4"/>
		<rect x="2034.5" y="279.5" fill="#E5951E" width="1" height="17.4"/>
	</g>
	<g>
		<rect x="2032.1" y="300" fill="#E5951E" width="1" height="17.4"/>
		<rect x="2034.5" y="300" fill="#E5951E" width="1" height="17.4"/>
	</g>
	<g>
		<rect x="2032.1" y="319.7" fill="#E5951E" width="1" height="18.6"/>
		<rect x="2034.5" y="319.7" fill="#E5951E" width="1" height="18.6"/>
	</g>
	<g>
		<rect x="2032.1" y="341.5" fill="#E5951E" width="1" height="43.3"/>
		<rect x="2034.5" y="341.5" fill="#E5951E" width="1" height="43.3"/>
	</g>
	<g>
		<rect x="2067.3" y="249.1" fill="#E5951E" width="1" height="27"/>
		<rect x="2069.7" y="249.1" fill="#E5951E" width="1" height="27"/>
	</g>
	<g>
		<rect x="2067.3" y="279.5" fill="#E5951E" width="1" height="17.4"/>
		<rect x="2069.7" y="279.5" fill="#E5951E" width="1" height="17.4"/>
	</g>
	<g>
		<rect x="2067.3" y="300" fill="#E5951E" width="1" height="17.4"/>
		<rect x="2069.7" y="300" fill="#E5951E" width="1" height="17.4"/>
	</g>
	<g>
		<rect x="2067.3" y="319.7" fill="#E5951E" width="1" height="18.6"/>
		<rect x="2069.7" y="319.7" fill="#E5951E" width="1" height="18.6"/>
	</g>
	<g>
		<rect x="2067.3" y="341.5" fill="#E5951E" width="1" height="43.3"/>
		<rect x="2069.7" y="341.5" fill="#E5951E" width="1" height="43.3"/>
	</g>
	<g>
		<rect x="2269.4" y="249.1" fill="#E5951E" width="1" height="27"/>
		<rect x="2271.8" y="249.1" fill="#E5951E" width="1" height="27"/>
	</g>
	<g>
		<rect x="2269.4" y="279.5" fill="#E5951E" width="1" height="17.4"/>
		<rect x="2271.8" y="279.5" fill="#E5951E" width="1" height="17.4"/>
	</g>
	<g>
		<rect x="2269.4" y="300" fill="#E5951E" width="1" height="17.4"/>
		<rect x="2271.8" y="300" fill="#E5951E" width="1" height="17.4"/>
	</g>
	<g>
		<rect x="2269.4" y="319.7" fill="#E5951E" width="1" height="18.6"/>
		<rect x="2271.8" y="319.7" fill="#E5951E" width="1" height="18.6"/>
	</g>
	<g>
		<rect x="2269.4" y="341.5" fill="#E5951E" width="1" height="43.3"/>
		<rect x="2271.8" y="341.5" fill="#E5951E" width="1" height="43.3"/>
	</g>
	<g>
		<rect x="2304.7" y="249.1" fill="#E5951E" width="1" height="27"/>
		<rect x="2307.1" y="249.1" fill="#E5951E" width="1" height="27"/>
	</g>
	<g>
		<rect x="2304.7" y="279.5" fill="#E5951E" width="1" height="17.4"/>
		<rect x="2307.1" y="279.5" fill="#E5951E" width="1" height="17.4"/>
	</g>
	<g>
		<rect x="2304.7" y="300" fill="#E5951E" width="1" height="17.4"/>
		<rect x="2307.1" y="300" fill="#E5951E" width="1" height="17.4"/>
	</g>
	<g>
		<rect x="2304.7" y="319.7" fill="#E5951E" width="1" height="18.6"/>
		<rect x="2307.1" y="319.7" fill="#E5951E" width="1" height="18.6"/>
	</g>
	<g>
		<rect x="2304.7" y="341.5" fill="#E5951E" width="1" height="43.3"/>
		<rect x="2307.1" y="341.5" fill="#E5951E" width="1" height="43.3"/>
	</g>
</g>
<g>
	<g>
		<rect x="1266.2" y="376.8" fill="#F48233" width="202.4" height="5.8"/>
	</g>
	<g>
		<rect x="1100.7" y="376.8" fill="#F48233" width="131.3" height="5.8"/>
	</g>
	<g>
		<rect x="1503.9" y="376.8" fill="#F48233" width="131.3" height="5.8"/>
	</g>
	<g>
		<g>
			<rect x="1266.2" y="370.4" fill="#F48233" width="202.4" height="2.6"/>
		</g>
		<g>
			<rect x="1100.7" y="370.4" fill="#F48233" width="131.3" height="2.6"/>
		</g>
		<g>
			<rect x="1503.9" y="370.4" fill="#F48233" width="131.3" height="2.6"/>
		</g>
	</g>
	<path fill="#E98329" d="M1597.7,359.9l-0.6-2.2c-2.1,0.5-4.3,1-6.6,1.3c-6.2-1-12.1-2.8-17.8-5.3v-0.4h-0.9
		c-5.4-2.4-10.5-5.5-15.4-9.3v-0.2h-0.3c-11.4-8.8-21.6-21.2-30.4-37c-14.7-26.6-19.9-53.6-20-53.8l-2.9-0.1
		c-0.1,0.2-4.9,18.5-16.8,39.7c-10.9-21.2-15.7-39.5-15.7-39.7l-2.9,0c-0.1,0.2-6.3,23.6-22.1,48.2h-0.6v1c-0.9,1.4-1.9,2.8-2.8,4.2
		c-14.6,21-38.9,45.5-75.8,51.7c-36.6-6.2-60.2-30.7-74.1-51.6c-1.7-2.5-3.2-5-4.7-7.5v-0.5h-0.3c-13.7-23.5-18.9-45.2-19-45.4h-2.9
		c-0.1,0.2-4.5,19-16.2,40.5c-11.5-21.6-15.8-40.3-15.8-40.5l-2.9,0c-0.1,0.3-6.7,27-24.4,53.4c-14.1,21-38,45.5-74.7,51.7
		c-5.2-0.9-10.3-2.1-15.1-3.7l-1,2.8c2.3,0.8,4.6,1.4,7,2c-2.9,0.2-5.8,0.4-8.8,0.4v3c6.3,0,12.3-0.5,18-1.4c5.9,1,11.9,1.4,18,1.4
		c4,0,7.9-0.2,11.7-0.6v17.8h3v-18.2c4.7-0.6,9.1-1.5,13.4-2.7v20.9h3V358c4.5-1.4,8.8-3,12.9-4.9v26.6h3v-28
		c4.8-2.4,9.4-5.1,13.6-8.1v36.1h3v-38.2c13.4-10,23.6-22.3,31.1-33.6c1.8-2.8,3.6-5.6,5.2-8.4c1.6,2.8,3.3,5.6,5.1,8.3
		c7.3,11.2,17.2,23.3,30.4,33.2v38.6h3v-36.3c4.2,2.9,8.6,5.7,13.4,8.1v28.3h3v-26.8c4,1.9,8.2,3.5,12.6,4.9v22h3v-21.1
		c4.2,1.2,8.7,2.1,13.4,2.8v18.3h3v-17.9c4,0.4,8.2,0.7,12.5,0.7c0.3,0,0.5,0,0.8,0v17.2h3v-17.3c4.2-0.1,8.2-0.5,12.1-1.1v18.4h3
		v-18.6c4.6,0.7,9.1,1.1,13.3,1.3v17.3h3v-17.2c0.3,0,0.6,0,0.8,0c4,0,7.9-0.2,11.7-0.6v17.9h3v-18.2c4.6-0.6,9.1-1.5,13.4-2.6v20.8
		h3V358c4.5-1.3,8.8-3,12.9-4.8v26.5h3v-27.9c4.8-2.4,9.3-5,13.6-7.9v35.8h3v-37.9c13.9-10.1,24.5-22.5,32.3-33.9
		c2.1-3.1,4.1-6.2,5.9-9.2c1.7,3.1,3.6,6.3,5.5,9.5c8.9,14.3,19,26,29.9,34.8v36.7h3v-34.4c4.3,3.2,8.8,6,13.4,8.4v25.9h3v-24.5
		c4.1,1.9,8.3,3.5,12.6,4.7v19.8h3v-19c4.4,1.1,8.8,1.8,13.4,2.1v16.8h3v-16.6c1.2,0,2.3,0.1,3.5,0.1c3.2,0,6.5-0.2,9.7-0.5v17.1h3
		v-17.4c0.6-0.1,1.1-0.1,1.6-0.2c4.4,0.7,8.8,1.1,13.4,1.1v-3C1601.9,360.2,1599.8,360.1,1597.7,359.9z M1160.6,358.9
		c-3.8,0.4-7.6,0.6-11.7,0.6c-3,0-6-0.1-8.9-0.4c7.4-1.9,14.3-4.5,20.6-7.7L1160.6,358.9L1160.6,358.9z M1177,355.8
		c-4.3,1.2-8.7,2.1-13.4,2.7v-8.6c4.8-2.6,9.2-5.5,13.4-8.6V355.8z M1192.9,349.8c-4.1,1.9-8.4,3.6-12.9,5v-15.6h-0.4
		c4.9-3.9,9.3-8,13.3-12.2V349.8z M1209.5,340c-4.2,3.1-8.7,5.9-13.6,8.4v-23.5h-1c5.1-5.6,9.5-11.4,13.2-16.9
		c0.5-0.7,0.9-1.4,1.4-2.1V340z M1241.1,306.3c-7,10.5-16.4,21.9-28.6,31.4V301h0c10.5-17.4,16.4-34,19-42.2c2.2,7.5,7,22,15.6,37.7
		C1245.3,299.8,1243.3,303,1241.1,306.3z M1284.3,337.6c-10.2-8.2-19.5-18.6-27.8-31.2c-2.1-3.3-4.1-6.6-5.9-9.8
		c8.8-15.7,13.7-30.3,16-37.7c2.4,7.9,7.9,23.9,17.7,40.8L1284.3,337.6L1284.3,337.6z M1300.7,348.3c-4.6-2.4-9.1-5.2-13.4-8.4
		v-35.3c0.7,1.1,1.4,2.2,2.1,3.3c3.6,5.5,7.4,10.4,11.2,14.9V348.3z M1316.2,354.7c-4.3-1.4-8.5-3-12.6-5v-23.5
		c4.1,4.5,8.3,8.5,12.6,11.9V354.7z M1332.6,358.4c-4.6-0.6-9-1.6-13.4-2.8v-15.1c4.4,3.4,8.9,6.3,13.4,8.8V358.4z M1348,359.5
		c-4.2,0-8.4-0.2-12.5-0.7v-7.9c4.5,2.3,8.9,4.2,13.3,5.7v2.8C1348.6,359.5,1348.3,359.5,1348,359.5z M1351.8,359.4v-1.8
		c1.8,0.6,3.5,1.1,5.2,1.5C1355.4,359.3,1353.6,359.3,1351.8,359.4z M1375.2,359.1c1.7-0.4,3.4-0.9,5-1.4v1.7
		C1378.5,359.4,1376.8,359.3,1375.2,359.1z M1395.8,358.9c-3.8,0.4-7.7,0.6-11.7,0.6c-0.3,0-0.6,0-0.8,0v-2.7
		c4.4-1.5,8.6-3.3,12.6-5.2V358.9z M1412.2,355.8c-4.3,1.2-8.7,2.1-13.4,2.7V350c4.8-2.5,9.2-5.4,13.4-8.4V355.8z M1428.1,349.9
		c-4.1,1.9-8.4,3.6-12.9,5v-15.6c4.7-3.7,9-7.6,12.9-11.6V349.9z M1444.7,340.3c-4.2,3-8.8,5.7-13.6,8.2v-23.9
		c5.1-5.5,9.5-11.2,13.2-16.6c0.1-0.2,0.2-0.4,0.4-0.5V340.3z M1477.5,306.3c-7.3,10.7-17.2,22.2-29.9,31.8v-35.2
		c11.8-18.4,18.4-36.2,21.1-44.4c2.2,7.2,7.2,21.5,15.5,37.2C1482.2,299.2,1480,302.7,1477.5,306.3z M1521.4,339.1
		c-11.5-9.7-20.6-21.5-27.4-32.4c-2.3-3.7-4.4-7.4-6.3-11c8.7-15.3,13.9-29.2,16.3-36.6c2.2,8.9,7.5,27.3,17.4,46.1L1521.4,339.1
		L1521.4,339.1z M1537.8,330.7v19.7c-4.8-2.6-9.2-5.6-13.4-8.8v-31c4.3,7.5,9,14.2,14,20.1L1537.8,330.7L1537.8,330.7z
		 M1553.3,356.8c-4.4-1.3-8.6-3-12.6-4.9v-18.5c4,4.4,8.2,8.4,12.6,11.9V356.8z M1569.7,359.9c-4.6-0.4-9.1-1.1-13.4-2.2v-10.1
		c4.3,3.1,8.7,5.8,13.4,7.9V359.9z M1576.2,360.2c-1.2,0-2.4,0-3.5-0.1v-3.2c2.9,1.2,5.8,2.3,8.8,3.1
		C1579.7,360.1,1578,360.2,1576.2,360.2z"/>
	<g>
		<path fill="#F48233" d="M1500.2,254.6v6h-28.1v-6h-7.4v141.6h7.4v-7.4l14.1-6.2l14.1,6.2v7.4h7.4V254.6H1500.2z M1500.2,266.1
			v15.3h-28.1v-15.3H1500.2z M1472.1,364.9v-14.8h28.1v14.8H1472.1z M1498.9,372.7l-12.8,5.7l-12.8-5.7H1498.9z M1472.1,344.6v-15.2
			h28.1v15.2H1472.1z M1472.1,324v-16.2h28.1V324H1472.1z M1472.1,302.3v-15.5h28.1v15.5L1472.1,302.3L1472.1,302.3z M1472.1,384.6
			v-8.3l9.4,4.1L1472.1,384.6z M1500.2,384.6l-9.4-4.1l9.4-4.1V384.6z"/>
	</g>
	<g>
		<path fill="#F48233" d="M1263,254.6v6h-28.1v-6h-7.4v141.6h7.4v-7.4l14.1-6.2l14.1,6.2v7.4h7.4V254.6H1263z M1263,266.1v15.3
			h-28.1v-15.3H1263z M1234.9,364.9v-14.8h28.1v14.8H1234.9z M1261.7,372.7l-12.8,5.7l-12.8-5.7H1261.7z M1234.9,344.6v-15.2h28.1
			v15.2H1234.9z M1234.9,324v-16.2h28.1V324H1234.9z M1234.9,302.3v-15.5h28.1v15.5L1234.9,302.3L1234.9,302.3z M1234.9,384.6v-8.3
			l9.4,4.1L1234.9,384.6z M1263,384.6l-9.4-4.1l9.4-4.1V384.6z"/>
	</g>
	<rect x="1223.8" y="396.2" fill="#F48233" width="15.7" height="5.3"/>
	<rect x="1258.4" y="396.2" fill="#F48233" width="15.7" height="5.3"/>
	<rect x="1461" y="396.2" fill="#F48233" width="15.7" height="5.3"/>
	<rect x="1495.6" y="396.2" fill="#F48233" width="15.7" height="5.3"/>
	<g>
		<rect x="1234.9" y="364.9" fill="#B24A1A" width="2" height="8.2"/>
		<rect x="1234.9" y="344.9" fill="#B24A1A" width="2" height="5.2"/>
		<rect x="1234.9" y="324" fill="#B24A1A" width="2" height="5.2"/>
		<rect x="1234.9" y="302.3" fill="#B24A1A" width="2" height="5.2"/>
		<rect x="1234.9" y="281.5" fill="#B24A1A" width="2" height="5.2"/>
		<rect x="1234.9" y="260.7" fill="#B24A1A" width="2" height="5.2"/>
	</g>
	<g>
		<rect x="1472.4" y="364.9" fill="#B24A1A" width="2" height="8.2"/>
		<rect x="1472.4" y="344.9" fill="#B24A1A" width="2" height="5.2"/>
		<rect x="1472.4" y="324" fill="#B24A1A" width="2" height="5.2"/>
		<rect x="1472.4" y="302.3" fill="#B24A1A" width="2" height="5.2"/>
		<rect x="1472.4" y="281.5" fill="#B24A1A" width="2" height="5.2"/>
		<rect x="1472.4" y="260.7" fill="#B24A1A" width="2" height="5.2"/>
	</g>
	<g>
		<rect x="1475.6" y="346.4" fill="#C8551A" width="4.2" height="2.2"/>
		<rect x="1484" y="346.4" fill="#C8551A" width="4.2" height="2.2"/>
		<rect x="1492.5" y="346.4" fill="#C8551A" width="4.2" height="2.2"/>
	</g>
	<g>
		<rect x="1475.6" y="368.8" fill="#C8551A" width="4.2" height="2.2"/>
		<rect x="1484" y="368.8" fill="#C8551A" width="4.2" height="2.2"/>
		<rect x="1492.5" y="368.8" fill="#C8551A" width="4.2" height="2.2"/>
	</g>
	<g>
		<rect x="1475.6" y="325.5" fill="#C8551A" width="4.2" height="2.2"/>
		<rect x="1484" y="325.5" fill="#C8551A" width="4.2" height="2.2"/>
		<rect x="1492.5" y="325.5" fill="#C8551A" width="4.2" height="2.2"/>
	</g>
	<g>
		<rect x="1475.6" y="303.8" fill="#C8551A" width="4.2" height="2.2"/>
		<rect x="1484" y="303.8" fill="#C8551A" width="4.2" height="2.2"/>
		<rect x="1492.5" y="303.8" fill="#C8551A" width="4.2" height="2.2"/>
	</g>
	<g>
		<rect x="1475.6" y="283" fill="#C8551A" width="4.2" height="2.2"/>
		<rect x="1484" y="283" fill="#C8551A" width="4.2" height="2.2"/>
		<rect x="1492.5" y="283" fill="#C8551A" width="4.2" height="2.2"/>
	</g>
	<g>
		<rect x="1475.6" y="262.1" fill="#C8551A" width="4.2" height="2.2"/>
		<rect x="1484" y="262.1" fill="#C8551A" width="4.2" height="2.2"/>
		<rect x="1492.5" y="262.1" fill="#C8551A" width="4.2" height="2.2"/>
	</g>
	<g>
		<rect x="1238.4" y="303.8" fill="#C8551A" width="4.2" height="2.2"/>
		<rect x="1246.8" y="303.8" fill="#C8551A" width="4.2" height="2.2"/>
		<rect x="1255.2" y="303.8" fill="#C8551A" width="4.2" height="2.2"/>
		<g>
			<rect x="1238.4" y="325.5" fill="#C8551A" width="4.2" height="2.2"/>
			<rect x="1246.8" y="325.5" fill="#C8551A" width="4.2" height="2.2"/>
			<rect x="1255.2" y="325.5" fill="#C8551A" width="4.2" height="2.2"/>
		</g>
		<g>
			<rect x="1238.4" y="346.4" fill="#C8551A" width="4.2" height="2.2"/>
			<rect x="1246.8" y="346.4" fill="#C8551A" width="4.2" height="2.2"/>
			<rect x="1255.2" y="346.4" fill="#C8551A" width="4.2" height="2.2"/>
		</g>
		<g>
			<rect x="1238.4" y="368.7" fill="#C8551A" width="4.2" height="2.2"/>
			<rect x="1246.8" y="368.7" fill="#C8551A" width="4.2" height="2.2"/>
			<rect x="1255.2" y="368.7" fill="#C8551A" width="4.2" height="2.2"/>
		</g>
	</g>
	<g>
		<rect x="1238.4" y="262.1" fill="#C8551A" width="4.2" height="2.2"/>
		<rect x="1246.8" y="262.1" fill="#C8551A" width="4.2" height="2.2"/>
		<rect x="1255.2" y="262.1" fill="#C8551A" width="4.2" height="2.2"/>
		<rect x="1238.4" y="283" fill="#C8551A" width="4.2" height="2.2"/>
		<rect x="1246.8" y="283" fill="#C8551A" width="4.2" height="2.2"/>
		<rect x="1255.2" y="283" fill="#C8551A" width="4.2" height="2.2"/>
		<g>
			<rect x="1229.6" y="257.1" fill="#C8551A" width="1" height="27"/>
			<rect x="1232" y="257.1" fill="#C8551A" width="1" height="27"/>
		</g>
		<g>
			<rect x="1229.6" y="287.5" fill="#C8551A" width="1" height="17.4"/>
			<rect x="1232" y="287.5" fill="#C8551A" width="1" height="17.4"/>
		</g>
		<g>
			<rect x="1229.6" y="308.6" fill="#C8551A" width="1" height="17.4"/>
			<rect x="1232" y="308.6" fill="#C8551A" width="1" height="17.4"/>
		</g>
		<g>
			<rect x="1229.6" y="328.3" fill="#C8551A" width="1" height="18.6"/>
			<rect x="1232" y="328.3" fill="#C8551A" width="1" height="18.6"/>
		</g>
		<g>
			<rect x="1229.6" y="349.5" fill="#C8551A" width="1" height="43.3"/>
			<rect x="1232" y="349.5" fill="#C8551A" width="1" height="43.3"/>
		</g>
		<g>
			<rect x="1264.8" y="257.1" fill="#C8551A" width="1" height="27"/>
			<rect x="1267.2" y="257.1" fill="#C8551A" width="1" height="27"/>
		</g>
		<g>
			<rect x="1264.8" y="287.5" fill="#C8551A" width="1" height="17.4"/>
			<rect x="1267.2" y="287.5" fill="#C8551A" width="1" height="17.4"/>
		</g>
		<g>
			<rect x="1264.8" y="308" fill="#C8551A" width="1" height="17.4"/>
			<rect x="1267.2" y="308" fill="#C8551A" width="1" height="17.4"/>
		</g>
		<g>
			<rect x="1264.8" y="328.3" fill="#C8551A" width="1" height="18.6"/>
			<rect x="1267.2" y="328.3" fill="#C8551A" width="1" height="18.6"/>
		</g>
		<g>
			<rect x="1264.8" y="349.5" fill="#C8551A" width="1" height="43.3"/>
			<rect x="1267.2" y="349.5" fill="#C8551A" width="1" height="43.3"/>
		</g>
	</g>
	<g>
		<rect x="1466.8" y="257.1" fill="#C8551A" width="1" height="27"/>
		<rect x="1469.3" y="257.1" fill="#C8551A" width="1" height="27"/>
	</g>
	<g>
		<rect x="1466.8" y="287.5" fill="#C8551A" width="1" height="17.4"/>
		<rect x="1469.3" y="287.5" fill="#C8551A" width="1" height="17.4"/>
	</g>
	<g>
		<rect x="1466.8" y="308" fill="#C8551A" width="1" height="17.4"/>
		<rect x="1469.3" y="308" fill="#C8551A" width="1" height="17.4"/>
	</g>
	<g>
		<rect x="1466.8" y="327.7" fill="#C8551A" width="1" height="18.6"/>
		<rect x="1469.3" y="327.7" fill="#C8551A" width="1" height="18.6"/>
	</g>
	<g>
		<rect x="1466.8" y="349.5" fill="#C8551A" width="1" height="43.3"/>
		<rect x="1469.3" y="349.5" fill="#C8551A" width="1" height="43.3"/>
	</g>
	<g>
		<rect x="1502.2" y="257.1" fill="#C8551A" width="1" height="27"/>
		<rect x="1504.6" y="257.1" fill="#C8551A" width="1" height="27"/>
	</g>
	<g>
		<rect x="1502.2" y="287.5" fill="#C8551A" width="1" height="17.4"/>
		<rect x="1504.6" y="287.5" fill="#C8551A" width="1" height="17.4"/>
	</g>
	<g>
		<rect x="1502.2" y="308" fill="#C8551A" width="1" height="17.4"/>
		<rect x="1504.6" y="308" fill="#C8551A" width="1" height="17.4"/>
	</g>
	<g>
		<rect x="1502.2" y="327.7" fill="#C8551A" width="1" height="18.6"/>
		<rect x="1504.6" y="327.7" fill="#C8551A" width="1" height="18.6"/>
	</g>
	<g>
		<rect x="1502.2" y="349.5" fill="#C8551A" width="1" height="43.3"/>
		<rect x="1504.6" y="349.5" fill="#C8551A" width="1" height="43.3"/>
	</g>
</g>
<g>
	<rect x="1133.3" y="361.1" fill="#E5951E" width="3" height="23.8"/>
</g>
<g>
	<rect x="1117" y="366.2" fill="#E5951E" width="3" height="18.7"/>
</g>
<g>
	<rect x="1101.9" y="361.2" fill="#E5951E" width="3" height="23.7"/>
</g>
<linearGradient id="SVGID_4_" gradientUnits="userSpaceOnUse" x1="1204.6852" y1="1145.3555" x2="680.4032" y2="-319.0183" gradientTransform="matrix(1 -6.900000e-03 -6.900000e-03 -1 -182.2889 243.1153)">
	<stop  offset="1.230000e-02" style="stop-color:#EBF2D4"/>
	<stop  offset="1" style="stop-color:#92E1E1"/>
</linearGradient>
<path fill="url(#SVGID_4_)" d="M670.1,341.2l-0.5-68.3l-7.8,0.1c-0.1-7.9-6.5-14.3-14.5-14.3c-7.9,0.1-14.3,6.5-14.3,14.5l-8,0.1
	l0.3,48.7l-12.4,0.1l0.1,19.6l-11.9,0.1l-0.3-46.3h-5.6v-5.6h2.6l-0.1-12.1l-36,0.2l0.1,12.1h2.5v5.6h-4.9l0.1,21.6l-13.8,0.1
	l-0.3-42.6h2.7v-4.6l-41.7,0.3v4.6h2.3l0.5,67.3l-20.5,0.1l-0.4-55.7h-4.2c0-4.2-3.2-7.7-7.4-8.2l-0.1-11.5h-3l0.1,11.7
	c-3.6,0.9-6.3,4.2-6.2,8.1h-4.6l0.4,55.7l-9,0.1l-0.7,55.4h234.7l0.7-57L670.1,341.2z M569.4,290l21.2-0.1v5.6l-21.2,0.1V290z"/>
<g>
	<polygon fill="#82A54F" points="629.3,347.9 629.3,344.3 621.7,344.3 621.7,337 594,337 594,344.3 586.5,344.3 586.5,329.6 
		551,329.6 551,344.3 548.4,344.3 548.4,347.9 551,347.9 551,370.5 548.9,370.5 548.9,374.2 551,374.2 551,397.6 626.7,397.6 
		626.7,374.2 628.8,374.2 628.8,370.5 626.7,370.5 626.7,347.9 	"/>
	<path fill="#6B8C3F" d="M580.5,397.3h-10.7v-9.4c0-3,2.4-5.3,5.3-5.3l0,0c3,0,5.3,2.4,5.3,5.3v9.4H580.5z"/>
	<path fill="#6B8C3F" d="M566.3,397.3h-10.7v-9.4c0-3,2.4-5.3,5.3-5.3l0,0c3,0,5.3,2.4,5.3,5.3v9.4H566.3z"/>
	<path fill="#6B8C3F" d="M594.3,397.3h-10.7v-9.4c0-3,2.4-5.3,5.3-5.3l0,0c3,0,5.3,2.4,5.3,5.3v9.4H594.3z"/>
	<path fill="#6B8C3F" d="M608.3,397.3h-10.7v-9.4c0-3,2.4-5.3,5.3-5.3l0,0c3,0,5.3,2.4,5.3,5.3v9.4H608.3z"/>
	<path fill="#6B8C3F" d="M622.7,397.3H612v-9.4c0-3,2.4-5.3,5.3-5.3l0,0c3,0,5.3,2.4,5.3,5.3v9.4H622.7z"/>
	<rect x="571.2" y="354.3" fill="#6B8C3F" width="8" height="13.2"/>
	<rect x="584.9" y="354.3" fill="#6B8C3F" width="8" height="13.2"/>
	<rect x="598.9" y="354.3" fill="#6B8C3F" width="8" height="13.2"/>
	<rect x="613.4" y="354.3" fill="#6B8C3F" width="8" height="13.2"/>
	<rect x="556.9" y="354.3" fill="#6B8C3F" width="8" height="13.2"/>
	<rect x="561.6" y="332.5" fill="#6B8C3F" width="3" height="6.4"/>
	<rect x="566.8" y="332.5" fill="#6B8C3F" width="3" height="6.4"/>
	<rect x="572.2" y="332.5" fill="#6B8C3F" width="3" height="6.4"/>
	<rect x="577.7" y="332.5" fill="#6B8C3F" width="3" height="6.4"/>
	<rect x="556.4" y="332.5" fill="#6B8C3F" width="3" height="6.4"/>
</g>
<g>
	<g>
		
			<rect x="222.9" y="357.4" transform="matrix(1 -7.799762e-03 7.799762e-03 1 -2.8956 1.8147)" fill="#E5951E" width="16.6" height="29.5"/>
		<path fill="#FFC356" d="M225.2,385.2c4.1-21,33.8-35.5,33.8-35.5s-50.5-6-80.8,35.8C178.1,385.5,212,385.3,225.2,385.2z"/>
		<path fill="#E5951E" d="M204.8,361.6c0,0-2,0.9-4,2.4c0,0-6.2,8.5-3.9,21.4C196.9,385.4,197.3,372.5,204.8,361.6z"/>
		<path fill="#FFC356" d="M196.9,385.4c-0.2-24.8,16.7-43.1,16.7-43.1s-44.4-17.4-71.2,43.5C142.4,385.8,183.4,385.5,196.9,385.4z"
			/>
		<path fill="#E5951E" d="M160,358c0,0,4.3,8.7,2.7,27.3c0,0,4-16.2-0.4-29.7C162.3,355.7,161.3,356.7,160,358z"/>
		
			<rect x="45.2" y="363.6" transform="matrix(-1 7.799697e-03 -7.799697e-03 -1 115.1236 751.5994)" fill="#E5951E" width="21.8" height="24.8"/>
		<path fill="#FFC356" d="M66.2,388.4c-3.9-17.8-39.1-34.9-39.1-34.9S75,333.9,126,388C126,388,80.4,388.3,66.2,388.4z"/>
		<path fill="#E5951E" d="M86.5,358.3c0,0,12.2,12.6,14.1,29.3c0,0-5-16.7-20.5-32.2C80,355.5,84,357.2,86.5,358.3z"/>
		<path fill="#FFC356" d="M52.6,322.2c0,0,46.9,40,47.5,66c13.6-0.1,51.5-0.4,51.5-0.4S143.5,317.7,52.6,322.2z"/>
		<path fill="#E5951E" d="M101.5,328.7l-5-1.6c0,0,13.3,37.1,4.1,60.5C100.6,387.6,111.1,367.8,101.5,328.7z"/>
		<path fill="#FFC356" d="M90.9,294c0,0,26.1,61.2,9.7,93.9c21.3-0.2,64.1-0.5,64.1-0.5S173.9,320.9,90.9,294z"/>
		<polygon fill="#FFC356" points="239.7,384.8 45.2,386.3 35.4,399.9 249.5,399.5 		"/>
	</g>
	
		<rect x="45.2" y="385.5" transform="matrix(-1 7.799697e-03 -7.799697e-03 -1 287.8134 772.1332)" fill="#E5951E" width="194.4" height="2.2"/>
</g>
<g>
	<g>
		<g>
			<g>
				<defs>
					
						<rect id="SVGID_5_" x="460.2" y="241.5" transform="matrix(0.9993 3.799915e-02 -3.799915e-02 0.9993 12.5335 -19.6412)" width="125.5" height="156.7"/>
				</defs>
				<clipPath id="SVGID_6_">
					<use xlink:href="#SVGID_5_"  overflow="visible"/>
				</clipPath>
				<g clip-path="url(#SVGID_6_)">
					
						<rect x="478.7" y="247.7" transform="matrix(0.9906 -0.1366 0.1366 0.9906 -31.6234 70.8881)" fill="#FFC965" width="44" height="36.3"/>
					
						<rect x="474" y="247.8" transform="matrix(0.9906 -0.1366 0.1366 0.9906 -29.3748 70.4036)" fill="#E5981E" width="48.6" height="2.8"/>
					
						<rect x="479" y="270.6" transform="matrix(0.9906 -0.1366 0.1366 0.9906 -41.386 72.9246)" fill="#FFC965" width="63.3" height="134.8"/>
					
						<rect x="480.6" y="372.6" transform="matrix(0.9906 -0.1366 0.1366 0.9906 -46.2532 73.9227)" fill="#E5981E" width="69.8" height="2.8"/>
					
						<rect x="477.1" y="347.1" transform="matrix(0.9906 -0.1366 0.1366 0.9906 -42.8123 73.2078)" fill="#E5981E" width="69.8" height="2.8"/>
					
						<rect x="473.6" y="321.7" transform="matrix(0.9906 -0.1366 0.1366 0.9906 -39.3725 72.4925)" fill="#E5981E" width="69.8" height="2.8"/>
					
						<rect x="470.2" y="297.1" transform="matrix(0.9906 -0.1366 0.1366 0.9906 -36.0406 71.7917)" fill="#E5981E" width="69.8" height="2.8"/>
					
						<rect x="466.6" y="271.3" transform="matrix(0.9906 -0.1366 0.1366 0.9906 -32.5461 71.0687)" fill="#E5981E" width="69.8" height="2.8"/>
					
						<rect x="514.1" y="254.2" transform="matrix(0.9906 -0.1366 0.1366 0.9906 -30.9096 72.9402)" fill="#E5951E" width="3.7" height="15"/>
					
						<rect x="506.4" y="255.3" transform="matrix(0.9906 -0.1366 0.1366 0.9906 -31.135 71.8929)" fill="#E5951E" width="3.7" height="15"/>
					
						<rect x="498.6" y="256.3" transform="matrix(0.9906 -0.1366 0.1366 0.9906 -31.3481 70.8299)" fill="#E5951E" width="3.7" height="15"/>
					
						<rect x="490.3" y="257.5" transform="matrix(0.9906 -0.1366 0.1366 0.9906 -31.583 69.7153)" fill="#E5951E" width="3.7" height="15"/>
					
						<rect x="481.8" y="258.6" transform="matrix(0.9906 -0.1366 0.1366 0.9906 -31.8222 68.559)" fill="#E5951E" width="3.7" height="15"/>
					<path fill="#E5951E" d="M516.4,295.8l10.6-1.5l-1.1-8.2c-0.4-3-3.1-5-6-4.6l0,0c-3,0.4-5,3.1-4.6,6L516.4,295.8z"/>
					<path fill="#E5951E" d="M499.5,298.2l10.6-1.5l-1.1-8.2c-0.4-3-3.1-5-6-4.6l0,0c-3,0.4-5,3.1-4.6,6L499.5,298.2z"/>
					<path fill="#E5951E" d="M482.7,300.5l10.6-1.5l-1.1-8.2c-0.4-3-3.1-5-6-4.6l0,0c-3,0.4-5,3.1-4.6,6L482.7,300.5z"/>
					<path fill="#E5951E" d="M519.7,320.2l10.6-1.5l-1.1-8.2c-0.4-3-3.1-5-6-4.6l0,0c-3,0.4-5,3.1-4.6,6L519.7,320.2z"/>
					<path fill="#E5951E" d="M502.8,322.5l10.6-1.5l-1.1-8.2c-0.4-3-3.1-5-6-4.6l0,0c-3,0.4-5,3.1-4.6,6L502.8,322.5z"/>
					<path fill="#E5951E" d="M486,324.8l10.6-1.5l-1.1-8.2c-0.4-3-3.1-5-6-4.6l0,0c-3,0.4-5,3.1-4.6,6L486,324.8z"/>
					<path fill="#E5951E" d="M523.2,345.6l10.6-1.5l-1.1-8.2c-0.4-3-3.1-5-6-4.6l0,0c-3,0.4-5,3.1-4.6,6L523.2,345.6z"/>
					<path fill="#E5951E" d="M506.3,347.9l10.6-1.5l-1.1-8.2c-0.4-3-3.1-5-6-4.6l0,0c-3,0.4-5,3.1-4.6,6L506.3,347.9z"/>
					<path fill="#E5951E" d="M489.5,350.2l10.6-1.5l-1.1-8.2c-0.4-3-3.1-5-6-4.6l0,0c-3,0.4-5,3.1-4.6,6L489.5,350.2z"/>
					<path fill="#E5951E" d="M526.8,371l10.6-1.5l-1.1-8.2c-0.4-3-3.1-5-6-4.6l0,0c-3,0.4-5,3.1-4.6,6L526.8,371z"/>
					<path fill="#E5951E" d="M509.8,373.3l10.6-1.5l-1.1-8.2c-0.4-3-3.1-5-6-4.6l0,0c-3,0.4-5,3.1-4.6,6L509.8,373.3z"/>
					<path fill="#E5951E" d="M493.1,375.7l10.6-1.5l-1.1-8.2c-0.4-3-3.1-5-6-4.6l0,0c-3,0.4-5,3.1-4.6,6L493.1,375.7z"/>
					<path fill="#E5951E" d="M531.2,403.2l10.6-1.5l-2.7-20.1c-0.4-3-3.1-5-6-4.6l0,0c-3,0.4-5,3.1-4.6,6L531.2,403.2z"/>
					<path fill="#E5951E" d="M514.3,405.5l10.6-1.5l-2.7-20.1c-0.4-3-3.1-5-6-4.6l0,0c-3,0.4-5,3.1-4.6,6L514.3,405.5z"/>
					<path fill="#E5951E" d="M497.5,407.8l10.6-1.5l-2.7-20.1c-0.4-3-3.1-5-6-4.6l0,0c-3,0.4-5,3.1-4.6,6L497.5,407.8z"/>
				</g>
			</g>
		</g>
	</g>
</g>
<g>
	
		<rect x="333.6" y="355.2" transform="matrix(1 3.699975e-03 -3.699975e-03 1 1.3956 -1.4622)" fill="#27AECB" width="124.6" height="42.5"/>
	
		<rect x="330.3" y="349.7" transform="matrix(1 3.699975e-03 -3.699975e-03 1 1.3068 -1.4633)" fill="#1D8BB8" width="131.7" height="5.5"/>
	
		<rect x="330.2" y="373.7" transform="matrix(1 3.699975e-03 -3.699975e-03 1 1.3956 -1.4628)" fill="#1D8BB8" width="131.7" height="5.5"/>
	
		<rect x="436" y="364.4" transform="matrix(1 3.699975e-03 -3.699975e-03 1 1.3741 -1.6278)" fill="#1D8BB8" width="9.3" height="12.3"/>
	
		<rect x="414.6" y="364.3" transform="matrix(1 3.699975e-03 -3.699975e-03 1 1.3735 -1.5487)" fill="#1D8BB8" width="9.3" height="12.3"/>
	
		<rect x="390.7" y="364.2" transform="matrix(1 3.699975e-03 -3.699975e-03 1 1.373 -1.4602)" fill="#1D8BB8" width="9.3" height="12.3"/>
	
		<rect x="370.8" y="364.1" transform="matrix(1 3.699975e-03 -3.699975e-03 1 1.3725 -1.3866)" fill="#1D8BB8" width="9.3" height="12.3"/>
	
		<rect x="344.8" y="364" transform="matrix(1 3.699975e-03 -3.699975e-03 1 1.3719 -1.2904)" fill="#1D8BB8" width="9.3" height="12.3"/>
	
		<rect x="435.9" y="385.6" transform="matrix(1 3.699975e-03 -3.699975e-03 1 1.4525 -1.6273)" fill="#1D8BB8" width="9.3" height="12.3"/>
	
		<rect x="414.6" y="385.5" transform="matrix(1 3.699975e-03 -3.699975e-03 1 1.452 -1.5485)" fill="#1D8BB8" width="9.3" height="12.3"/>
	
		<rect x="390.7" y="385.4" transform="matrix(1 3.699975e-03 -3.699975e-03 1 1.4514 -1.4601)" fill="#1D8BB8" width="9.3" height="12.3"/>
	
		<rect x="370.8" y="385.4" transform="matrix(1 3.699975e-03 -3.699975e-03 1 1.4513 -1.3865)" fill="#1D8BB8" width="9.3" height="12.3"/>
	
		<rect x="344.8" y="385.3" transform="matrix(1 3.699975e-03 -3.699975e-03 1 1.4508 -1.2903)" fill="#1D8BB8" width="9.3" height="12.3"/>
</g>
<g id="Yellow_tree_2_1_">
	<path fill="#513325" d="M744.9,386.9c0,0-0.2,8.5,1.5,10c1.2,1-6.1,0.6-6.1,0.6s1.4-8,1.1-13.1S744.9,386.9,744.9,386.9z"/>
	<g>
		<path fill="#A6BA4D" d="M730.4,377.7c0.1,10,5.9,13.5,13,13.5c7.2,0,13-3.6,12.9-13.6s-6-30.9-13.1-30.9
			C736,346.8,730.3,367.8,730.4,377.7z"/>
		<path fill="#D3D771" d="M731.2,377.2c0.1,9.5,5.5,12.9,12.2,12.9s12.1-3.5,12-13s-5.6-29.5-12.3-29.5
			C736.5,347.6,731.2,367.6,731.2,377.2z"/>
		<path fill="#A6BA4D" d="M743.2,347.5c0.3,0,0.5,0,0.8,0.1c-5.5,1.4-9.7,17.8-9.7,25.8c0.1,14.8,11.4,16.6,9.2,16.6
			c-6.7,0-12.1-3.3-12.2-12.9C731.2,367.6,736.5,347.6,743.2,347.5z"/>
	</g>
</g>
<g id="Yellow_tree_1_1_">
	<path fill="#513325" d="M23.8,389.4c0,0-0.6,6.6,0.4,7.8c0.7,0.8-4,0.2-4,0.2s1.3-6.1,1.5-10.1C21.8,383.2,23.8,389.4,23.8,389.4z"
		/>
	<g>
		<path fill="#A6BA4D" d="M14.9,382.5c-0.6,7.7,3.1,9.8,7.7,10.1s8.5-1.2,9.1-8.9c0.6-7.7-2.7-14.7-7.3-15
			C19.7,368.3,15.5,374.8,14.9,382.5z"/>
		<path fill="#D3D771" d="M15.5,382.1c-0.5,7.4,2.8,9.3,7.2,9.6c4.3,0.3,7.9-1.2,8.5-8.5c0.5-7.4-2.5-13.6-6.8-13.9
			C20,369,16,374.7,15.5,382.1z"/>
		<path fill="#A6BA4D" d="M24.4,369.2c0.2,0,0.3,0.1,0.5,0.1c-3.6,0.8-6.7,4.3-7.2,10.8c-0.9,12,6.6,11.6,5.1,11.5
			c-4.3-0.3-7.7-2.2-7.2-9.6C16.1,374.7,20,368.9,24.4,369.2z"/>
	</g>
</g>
<g id="Yellow_tree_1_2_">
	<path fill="#513325" d="M336.9,389.1c0,0,0.4,8.3,1.8,9.6c1,0.9-4.7,0.9-4.7,0.9s0.6-7.8,0-12.8
		C333.5,381.8,336.9,389.1,336.9,389.1z"/>
	<g>
		<path fill="#A6BA4D" d="M325.1,382c0.7,9.7,5.3,11.7,10.9,11.3c5.5-0.4,9.9-3,9.2-12.7c-0.7-9.7-5.7-17.8-11.3-17.4
			C328.4,363.5,324.5,372.3,325.1,382z"/>
		<path fill="#D3D771" d="M325.8,381.4c0.6,9.3,5,11.1,10.1,10.7c5.2-0.4,9.2-2.8,8.6-12.1s-5.3-16.5-10.5-16.1
			S325.1,372.1,325.8,381.4z"/>
		<path fill="#A6BA4D" d="M334.1,363.8c0.2,0,0.4,0,0.6,0.1c-4.2,1.6-7.2,6.6-6.7,14.8c1,15.1,9.8,13.4,8,13.5
			c-5.2,0.4-9.5-1.5-10.2-10.8C325.2,372,328.9,364.1,334.1,363.8z"/>
	</g>
</g>
<g id="Yellow_tree_2_3_">
	<path fill="#513325" d="M656.6,384.1c0,0-0.3,10.8,2.2,12.6c1.8,1.3-8.7,0.8-8.7,0.8s2-10.1,1.5-16.6
		C651.1,374.3,656.6,384.1,656.6,384.1z"/>
	<g>
		<path fill="#A6BA4D" d="M635.7,372.4c0.1,12.6,8.4,17.1,18.7,17s18.6-4.6,18.5-17.2s-8.6-39.1-18.9-39.1
			C643.8,333.2,635.6,359.8,635.7,372.4z"/>
		<path fill="#D3D771" d="M636.9,371.7c0.1,12.1,7.9,16.3,17.5,16.3c9.6-0.1,17.4-4.4,17.3-16.5c-0.1-12.1-8-37.4-17.6-37.3
			C644.5,334.2,636.9,359.6,636.9,371.7z"/>
		<path fill="#A6BA4D" d="M654.2,334.2c0.4,0,0.8,0,1.1,0.1c-7.9,1.8-14,22.6-14,32.7c0.1,18.8,16.4,21,13.1,21
			c-9.6,0.1-17.4-4.2-17.5-16.3C637,359.6,644.6,334.2,654.2,334.2z"/>
	</g>
</g>
<g>
	<polygon fill="#27AECB" points="936.4,248.2 925.8,229.8 924,229.8 924,211.8 920.2,211.8 920.2,193.8 917.7,193.8 915.7,139.2 
		914.8,139.2 912.8,193.8 910.2,193.8 910.2,211.8 906.4,211.8 906.4,229.8 904.6,229.8 894,248.2 887.6,248.2 887.6,397.5 
		942.7,397.5 942.8,248.2 	"/>
	<rect x="895.2" y="254.7" fill="#1D8BB8" width="6.2" height="4.3"/>
	<rect x="906.3" y="254.7" fill="#1D8BB8" width="6.2" height="4.3"/>
	<rect x="918.2" y="254.7" fill="#1D8BB8" width="6.2" height="4.3"/>
	<rect x="929.7" y="254.7" fill="#1D8BB8" width="6.2" height="4.3"/>
	<rect x="918.4" y="261.4" fill="#1D8BB8" width="5.6" height="22"/>
	<rect x="906.6" y="261.4" fill="#1D8BB8" width="5.6" height="22"/>
	<rect x="895.6" y="261.4" fill="#1D8BB8" width="5.6" height="22"/>
	<rect x="930.1" y="261.4" fill="#1D8BB8" width="5.6" height="22"/>
	<rect x="918.4" y="289.1" fill="#1D8BB8" width="5.6" height="108.5"/>
	<rect x="906.6" y="289.1" fill="#1D8BB8" width="5.6" height="108.5"/>
	<g>
		<polygon fill="#1D8BB8" points="904.3,272.7 878.3,272.7 878.3,319.1 872.8,319.1 872.8,397.5 909.7,397.5 909.7,319.2 
			904.3,319.2 		"/>
		<polygon fill="#1D8EB8" points="952.1,319.2 952.2,272.7 926.1,272.7 926.1,319.2 920.7,319.2 920.7,397.5 957.5,397.5 
			957.5,319.2 		"/>
	</g>
	<g>
		<polygon fill="#27AECB" points="901.2,272.7 876.2,272.7 876.2,319.1 871,319.1 871,397.5 906.4,397.5 906.4,319.2 901.2,319.2 		
			"/>
		<polygon fill="#27AECB" points="954.2,319.2 954.2,272.7 929.2,272.7 929.2,319.2 924,319.2 924,397.5 959.4,397.6 959.4,319.2 		
			"/>
	</g>
	<rect x="943.9" y="325.6" fill="#1D8BB8" width="6.5" height="67.3"/>
	<rect x="930.9" y="325.6" fill="#1D8BB8" width="6.5" height="67.3"/>
	<rect x="891.9" y="325.6" fill="#1D8BB8" width="6.5" height="67.1"/>
	<rect x="878.9" y="325.6" fill="#1D8BB8" width="6.5" height="67.1"/>
	<rect x="879.7" y="276.6" fill="#1D8BB8" width="2.5" height="19.1"/>
	<rect x="895.2" y="276.6" fill="#1D8BB8" width="2.5" height="19.1"/>
	<rect x="885.6" y="276.6" fill="#1D8BB8" width="6.2" height="19.1"/>
	<rect x="879.7" y="300" fill="#1D8BB8" width="2.5" height="19.1"/>
	<rect x="895.2" y="300.1" fill="#1D8BB8" width="2.5" height="19.1"/>
	<rect x="885.6" y="300" fill="#1D8BB8" width="6.2" height="19.1"/>
	<rect x="933" y="276.6" fill="#1D8BB8" width="2.5" height="19.1"/>
	<rect x="948.5" y="276.6" fill="#1D8BB8" width="2.5" height="19.1"/>
	<rect x="938.9" y="276.6" fill="#1D8BB8" width="6.2" height="19.1"/>
	<rect x="933" y="300.1" fill="#1D8BB8" width="2.5" height="19.1"/>
	<rect x="948.5" y="300.1" fill="#1D8BB8" width="2.5" height="19.1"/>
	<rect x="938.9" y="300.1" fill="#1D8BB8" width="6.2" height="19.1"/>
	<polygon fill="#1D8BB8" points="935.5,246.6 895,246.5 894,248.2 936.5,248.2 	"/>
	<rect x="906.4" y="228.7" fill="#1D8BB8" width="17.6" height="0.9"/>
</g>
<g id="Yellow_tree_1_3_">
	<path fill="#513325" d="M949.8,387.2c0,0-0.5,8.3,0.7,9.8c0.9,1.1-4.8,0.4-4.8,0.4s1.5-7.7,1.4-12.8
		C947.3,379.5,949.8,387.2,949.8,387.2z"/>
	<g>
		<path fill="#A6BA4D" d="M939,378.8c-0.5,9.7,3.9,12.1,9.6,12.4c5.5,0.3,10.1-1.8,10.6-11.6c0.5-9.7-3.7-18.4-9.2-18.6
			C944.3,360.8,939.4,369.1,939,378.8z"/>
		<path fill="#D3D771" d="M939.6,378.3c-0.4,9.3,3.7,11.5,8.8,11.8c5.2,0.3,9.4-1.7,9.9-11c0.4-9.3-3.4-17-8.6-17.2
			C944.7,361.5,940.1,369,939.6,378.3z"/>
		<path fill="#A6BA4D" d="M949.9,361.7c0.2,0,0.4,0.1,0.6,0.2c-4.4,1.2-8,5.7-8.3,13.9c-0.7,15.1,8.2,14.5,6.4,14.3
			c-5.2-0.3-9.3-2.5-8.9-11.8C940.1,368.9,944.7,361.5,949.9,361.7z"/>
	</g>
</g>
<polygon fill="#27AECB" points="1076.6,397.6 1038.6,397.6 1038.3,338.9 1057.3,338.8 1076.3,338.7 "/>
<polygon fill="#A6BA4D" points="1038.9,397.6 1000.9,397.6 1000.9,359.8 1019.7,343.9 1038.8,359.6 "/>
<polygon fill="#FFC356" points="1000.9,397.6 962.6,397.6 962.6,332.6 981.6,316.7 1000.9,332.5 "/>
<rect x="1012.5" y="374" transform="matrix(-1 3.699922e-03 -3.699922e-03 -1 2041.0989 746.1749)" fill="#869C4D" width="14.7" height="2"/>
<path fill="#E5951E" d="M979.5,367.3l-4.7,0l-0.1-9.9c0-1.3,1-2.4,2.3-2.4l0,0c1.3,0,2.4,1,2.4,2.3L979.5,367.3z"/>
<path fill="#E5951E" d="M989.7,367.2l-4.7,0l-0.1-9.9c0-1.3,1-2.4,2.3-2.4l0,0c1.3,0,2.4,1,2.4,2.3L989.7,367.2z"/>
<rect x="971.9" y="344.1" transform="matrix(-1 3.699922e-03 -3.699922e-03 -1 1965.1342 687.4677)" fill="#E5951E" width="20" height="3"/>
<rect x="972" y="365.9" transform="matrix(-1 3.699922e-03 -3.699922e-03 -1 1965.345 731.0796)" fill="#E5951E" width="20" height="3"/>
<path fill="#E5951E" d="M979.4,345.6l-4.7,0l-0.1-9.9c0-1.3,1-2.4,2.3-2.4l0,0c1.3,0,2.4,1,2.4,2.3L979.4,345.6z"/>
<path fill="#E5951E" d="M989.5,345.5l-4.7,0l-0.1-9.9c0-1.3,1-2.4,2.3-2.4l0,0c1.3,0,2.4,1,2.4,2.3L989.5,345.5z"/>
<polygon fill="#E5951E" points="979.6,397.6 972.1,397.6 972,380.6 979.5,380.6 "/>
<rect x="985" y="380.6" transform="matrix(-1 3.699922e-03 -3.699922e-03 -1 1980.925 765.9597)" fill="#E5951E" width="9.6" height="8.5"/>
<rect x="1013.9" y="365" transform="matrix(-1 3.699922e-03 -3.699922e-03 -1 2034.2964 735.4551)" fill="#869C4D" width="5.2" height="9.3"/>
<rect x="1021" y="364.9" transform="matrix(-1 3.699922e-03 -3.699922e-03 -1 2048.502 735.2574)" fill="#869C4D" width="5.2" height="9.3"/>
<path fill="#1D8BB8" d="M1051.7,397.6h-8.8l-0.1-10.7c0-2.4,2-4.5,4.4-4.4l0,0c2.4,0,4.5,2,4.4,4.4L1051.7,397.6z"/>
<path fill="#1D8BB8" d="M1062.4,397.6h-8.8l-0.1-10.7c0-2.4,2-4.5,4.4-4.4l0,0c2.4,0,4.5,2,4.4,4.4L1062.4,397.6z"/>
<path fill="#1D8BB8" d="M1073.7,397.6h-8.8l-0.1-10.8c0-2.4,2-4.5,4.4-4.4l0,0c2.4,0,4.5,2,4.4,4.4L1073.7,397.6z"/>
<path fill="#869C4D" d="M1016.5,397.6h-8.8v-10.5c0-2.4,2-4.5,4.4-4.4l0,0c2.4,0,4.5,2,4.4,4.4V397.6z"/>
<rect x="1035.9" y="337" transform="matrix(-1 3.699922e-03 -3.699922e-03 -1 2115.8838 672.8533)" fill="#1D8BB8" width="42.9" height="2.8"/>
<rect x="1035.9" y="355.3" transform="matrix(-1 3.699922e-03 -3.699922e-03 -1 2116.1121 709.465)" fill="#1D8BB8" width="42.9" height="2.8"/>
<rect x="1036" y="374.1" transform="matrix(-1 3.699922e-03 -3.699922e-03 -1 2116.356 747.077)" fill="#1D8BB8" width="42.9" height="2.8"/>
<rect x="1041.8" y="341.8" transform="matrix(-1 3.699922e-03 -3.699922e-03 -1 2090.2927 691.1746)" fill="#1D8BB8" width="5.4" height="11.4"/>
<rect x="1051.1" y="341.9" transform="matrix(-1 3.699922e-03 -3.699922e-03 -1 2108.895 691.261)" fill="#1D8BB8" width="5.4" height="11.4"/>
<rect x="1059.9" y="341.9" transform="matrix(-1 3.699922e-03 -3.699922e-03 -1 2126.499 691.1672)" fill="#1D8BB8" width="5.4" height="11.4"/>
<rect x="1041.9" y="360.3" transform="matrix(-1 3.699922e-03 -3.699922e-03 -1 2090.5215 728.0844)" fill="#1D8BB8" width="5.4" height="11.3"/>
<rect x="1050.7" y="360.8" transform="matrix(-1 3.699922e-03 -3.699922e-03 -1 2108.1472 728.9926)" fill="#1D8BB8" width="5.4" height="11.3"/>
<rect x="1059.6" y="360.8" transform="matrix(-1 3.699922e-03 -3.699922e-03 -1 2125.9531 728.9025)" fill="#1D8BB8" width="5.4" height="11.3"/>
<polygon fill="#9EB345" points="1000.8,359.8 1000.9,397.6 1002.6,397.6 1002.4,358.4 "/>
<rect x="1068.5" y="341.8" transform="matrix(-1 5.999919e-03 -5.999919e-03 -1 2144.4226 688.5805)" fill="#1D8BB8" width="5.4" height="11.4"/>
<rect x="1068.2" y="360.7" transform="matrix(-1 5.999919e-03 -5.999919e-03 -1 2143.9204 726.3107)" fill="#1D8BB8" width="5.4" height="11.3"/>
<g>
	<g>
		
			<rect x="282.7" y="325.6" transform="matrix(1 4.399958e-03 -4.399958e-03 1 1.5962 -1.3271)" fill="#6B8C3F" width="39.5" height="73"/>
		
			<rect x="286.4" y="269" transform="matrix(1 4.399958e-03 -4.399958e-03 1 1.2129 -1.3295)" fill="#82A54F" width="32.7" height="12"/>
		
			<rect x="292" y="251.9" transform="matrix(1 4.399958e-03 -4.399958e-03 1 1.124 -1.3302)" fill="#82A54F" width="21.7" height="5.8"/>
		<polygon fill="#6B8C3F" points="292,253 313.7,253.1 303.4,219.6 		"/>
		<polygon fill="#6B8C3F" points="288.2,268.9 317.5,269.1 313.6,257.1 292.3,257 		"/>
		
			<rect x="279.6" y="279.4" transform="matrix(1 4.399958e-03 -4.399958e-03 1 1.3339 -1.3285)" fill="#82A54F" width="46" height="46.2"/>
		<circle fill="#6B8C3F" cx="302.7" cy="303.3" r="16.3"/>
		
			<rect x="285" y="269" transform="matrix(1 4.399958e-03 -4.399958e-03 1 1.1938 -1.3294)" fill="#6B8C3F" width="35.5" height="3.3"/>
		
			<rect x="291" y="249.7" transform="matrix(1 4.399958e-03 -4.399958e-03 1 1.1088 -1.3303)" fill="#6B8C3F" width="23.8" height="3.3"/>
		<line fill="none" stroke="#6B8C3F" stroke-miterlimit="10" x1="303.5" y1="207.1" x2="303.4" y2="238.1"/>
	</g>
	
		<rect x="290.6" y="274.3" transform="matrix(-1 -5.000006e-03 5.000006e-03 -1 581.7888 555.1035)" fill="#6B8C3F" width="1.9" height="5"/>
	
		<rect x="296.2" y="274.4" transform="matrix(-1 -5.000006e-03 5.000006e-03 -1 592.9886 555.2259)" fill="#6B8C3F" width="1.9" height="5"/>
	
		<rect x="301.5" y="274.4" transform="matrix(-1 -5.000006e-03 5.000006e-03 -1 603.5884 555.347)" fill="#6B8C3F" width="1.9" height="5"/>
	
		<rect x="306.8" y="274.5" transform="matrix(-1 -5.000006e-03 5.000006e-03 -1 614.1882 555.4741)" fill="#6B8C3F" width="1.9" height="5"/>
	
		<rect x="312.4" y="274.4" transform="matrix(-1 -5.000006e-03 5.000006e-03 -1 625.3926 555.3925)" fill="#6B8C3F" width="1.9" height="5"/>
	<path fill="#82A54F" d="M311.5,268.9l-3.7-0.1l0-5.7c0-1,0.8-1.8,1.9-1.8l0,0c1,0,1.8,0.8,1.8,1.9L311.5,268.9z"/>
	<path fill="#82A54F" d="M305,268.9l-3.7-0.1l0-5.7c0-1,0.8-1.8,1.9-1.8l0,0c1,0,1.8,0.8,1.8,1.9L305,268.9z"/>
	<path fill="#82A54F" d="M304.5,249.6l-3.7-0.1l0-5.7c0-1,0.8-1.8,1.9-1.8l0,0c1,0,1.8,0.8,1.8,1.9L304.5,249.6z"/>
	<path fill="#82A54F" d="M297.8,268.8l-3.7-0.1l0-5.7c0-1,0.8-1.8,1.9-1.8l0,0c1,0,1.8,0.8,1.8,1.9L297.8,268.8z"/>
	
		<rect x="302.4" y="292.5" transform="matrix(-1 -5.000006e-03 5.000006e-03 -1 604.9005 598.4407)" fill="#82A54F" width="1.5" height="11.9"/>
	
		<rect x="296.3" y="302.8" transform="matrix(-1 -5.000006e-03 5.000006e-03 -1 598.6741 608.7852)" fill="#82A54F" width="7.6" height="1.6"/>
	
		<rect x="315.4" y="382" transform="matrix(-1 -5.000006e-03 5.000006e-03 -1 630.6095 780.2647)" fill="#82A54F" width="1.7" height="14.7"/>
	
		<rect x="286.9" y="381.9" transform="matrix(-1 -5.000006e-03 5.000006e-03 -1 573.6019 779.8734)" fill="#82A54F" width="1.7" height="14.7"/>
	
		<rect x="295.3" y="381.9" transform="matrix(-1 -5.000006e-03 5.000006e-03 -1 590.4039 779.9562)" fill="#82A54F" width="1.7" height="14.7"/>
	
		<rect x="306.7" y="382" transform="matrix(-1 -5.000006e-03 5.000006e-03 -1 613.2054 780.1902)" fill="#82A54F" width="1.7" height="14.7"/>
	
		<rect x="315.7" y="327.4" transform="matrix(-1 -5.000006e-03 5.000006e-03 -1 631.4197 671.0534)" fill="#82A54F" width="1.7" height="14.7"/>
	
		<rect x="287.2" y="327.2" transform="matrix(-1 -5.000006e-03 5.000006e-03 -1 574.4167 670.462)" fill="#82A54F" width="1.7" height="14.7"/>
	
		<rect x="295.6" y="327.3" transform="matrix(-1 -5.000006e-03 5.000006e-03 -1 591.2162 670.7449)" fill="#82A54F" width="1.7" height="14.7"/>
	
		<rect x="307" y="327.3" transform="matrix(-1 -5.000006e-03 5.000006e-03 -1 614.0204 670.7789)" fill="#82A54F" width="1.7" height="14.7"/>
	
		<rect x="315.6" y="347.9" transform="matrix(-1 -5.000006e-03 5.000006e-03 -1 631.01 725.157)" fill="#82A54F" width="1.7" height="27.8"/>
	
		<rect x="287.1" y="347.7" transform="matrix(-1 -5.000006e-03 5.000006e-03 -1 574.0087 724.5677)" fill="#82A54F" width="1.7" height="27.8"/>
	
		<rect x="295.5" y="347.8" transform="matrix(-1 -5.000006e-03 5.000006e-03 -1 590.8062 724.8484)" fill="#82A54F" width="1.7" height="27.8"/>
	
		<rect x="306.9" y="347.8" transform="matrix(-1 -5.000006e-03 5.000006e-03 -1 613.6124 724.8847)" fill="#82A54F" width="1.7" height="27.8"/>
	
		<rect x="281.4" y="343" transform="matrix(-1 -5.000006e-03 5.000006e-03 -1 602.9608 690.9589)" fill="#82A54F" width="41.9" height="3.4"/>
	
		<rect x="281.2" y="377" transform="matrix(-1 -5.000006e-03 5.000006e-03 -1 602.3495 758.9643)" fill="#82A54F" width="41.8" height="3.4"/>
</g>
<g>
	
		<rect x="825" y="317.6" transform="matrix(-1 4.500048e-03 -4.500048e-03 -1 1684.8569 711.5521)" fill="#A6BA4D" width="33.3" height="80.2"/>
	
		<rect x="825" y="317.7" transform="matrix(-1 4.500048e-03 -4.500048e-03 -1 1653.2322 711.8842)" fill="#96AD45" width="1.7" height="80.2"/>
	
		<rect x="799.1" y="301" transform="matrix(-1 4.500048e-03 -4.500048e-03 -1 1625.6211 695.2268)" fill="#A6BA4D" width="25.8" height="96.8"/>
	
		<rect x="807.8" y="309.2" transform="matrix(-1 4.500048e-03 -4.500048e-03 -1 1625.1295 629.0833)" fill="#81934D" width="8.1" height="14.3"/>
	
		<rect x="831.2" y="322.8" transform="matrix(-1 4.500048e-03 -4.500048e-03 -1 1671.9075 656.1432)" fill="#81934D" width="8.1" height="14.3"/>
	
		<rect x="843.2" y="322.7" transform="matrix(-1 4.500048e-03 -4.500048e-03 -1 1695.9232 655.9344)" fill="#81934D" width="8.1" height="14.3"/>
	
		<rect x="831.2" y="344.5" transform="matrix(-1 4.500048e-03 -4.500048e-03 -1 1672.1444 699.569)" fill="#81934D" width="8.1" height="14.3"/>
	
		<rect x="843.2" y="344.5" transform="matrix(-1 4.500048e-03 -4.500048e-03 -1 1696.1547 699.5603)" fill="#81934D" width="8.1" height="14.3"/>
	
		<rect x="831.3" y="367" transform="matrix(-1 4.500048e-03 -4.500048e-03 -1 1672.4326 744.5967)" fill="#81934D" width="8.1" height="14.3"/>
	
		<rect x="843.3" y="367" transform="matrix(-1 4.500048e-03 -4.500048e-03 -1 1696.4485 744.3882)" fill="#81934D" width="8.1" height="14.3"/>
	
		<rect x="807.9" y="337.4" transform="matrix(-1 4.500048e-03 -4.500048e-03 -1 1625.512 685.5188)" fill="#81934D" width="8.1" height="14.3"/>
	
		<rect x="808.1" y="367.2" transform="matrix(-1 4.500048e-03 -4.500048e-03 -1 1626.001 744.9583)" fill="#81934D" width="8.1" height="14.3"/>
	
		<rect x="807" y="322.2" transform="matrix(-1 4.500048e-03 -4.500048e-03 -1 1625.4733 642.1946)" fill="#81934D" width="10.1" height="1.4"/>
	
		<rect x="807" y="351.1" transform="matrix(-1 4.500048e-03 -4.500048e-03 -1 1625.7107 700.0266)" fill="#81934D" width="10.1" height="1.4"/>
	
		<rect x="807.2" y="380.8" transform="matrix(-1 4.500048e-03 -4.500048e-03 -1 1626.2036 759.2681)" fill="#81934D" width="10.1" height="1.4"/>
</g>
<g>
	<rect x="766.9" y="357.1" fill="#FFC965" width="65.6" height="40.5"/>
	<path fill="#E5951E" d="M766.9,365.4l-3.9,5.2c0,2.9,2.3,3.9,5.2,3.9s5.2-1,5.2-3.9h0.3c0,2.9,2.3,3.9,5.2,3.9
		c2.4,0,4.5-1.7,5.1-3.9c0.6,2.3,2.6,3.9,5.1,3.9c2.9,0,5.2-1,5.2-3.9l0,0c0,2.9,2.3,3.9,5.2,3.9s5.2-1,5.2-3.9
		c0,2.9,2.3,3.9,5.2,3.9s5.2-1,5.2-3.9l0,0c0,2.9,2.3,3.9,5.2,3.9s5.2-1,5.2-3.9c0,2.9,2.3,3.9,5.2,3.9s5.2-1,5.2-3.9l-3.8-5.2
		H766.9z"/>
	<rect x="771.1" y="381.4" fill="#E5951E" width="32.5" height="10.6"/>
	<rect x="810.5" y="380.6" fill="#E5951E" width="8.3" height="17"/>
	<rect x="820.9" y="380.2" fill="#E5951E" width="8.3" height="17"/>
	<rect x="765.2" y="357.1" fill="#E5951E" width="69.2" height="2.1"/>
</g>
<g id="Green_tree_2">
	<g>
		<path fill="#7DBCC8" d="M256.4,385.9c0-0.8,0-1.7,0-2.5c0.4,0.2,1,0.3,1.8,0.5c0.5,0.1,1.1,0.2,1.6,0.3c0.1,1,0.3,2,0.4,3
			c-0.8,0-2,0.1-2.8-0.3C256.8,386.5,256.6,386.2,256.4,385.9z"/>
		<path fill="#7DBCC8" d="M255.2,362.9c-0.2-1.8-0.5-3.5-0.8-5.2l4.5-0.2c0,0-0.2,2.6-0.2,6.8c-0.7,0-1.6,0-2.2-0.3
			C255.5,363.7,255.4,363.2,255.2,362.9z"/>
		<path fill="#7DBCC8" d="M256.5,380.3c0,0-0.1,0-0.1-0.1c0-0.9,0-1.8-0.1-2.6c0.2,0.1,0.5,0.1,0.8,0.2c0.7,0.1,1.5,0.3,2.1,0.4
			c0.1,1.3,0.2,2.6,0.4,3.9c-0.6,0-1.1-0.1-1.6-0.3C256.9,381.3,257.1,380.7,256.5,380.3z"/>
		<path fill="#7DBCC8" d="M256.2,375.4c0-1.1-0.1-2.2-0.2-3.3c0.2,0,0.4,0.1,0.6,0.1c0.7,0.1,1.5,0.3,2.2,0.4
			c0.1,1.1,0.1,2.3,0.2,3.5c-0.7,0-1.5,0-2.1-0.3C256.6,375.7,256.3,375.5,256.2,375.4z"/>
		<path fill="#7DBCC8" d="M255.9,369.9c-0.1-1.4-0.2-2.7-0.4-4.1c0.3,0.1,0.7,0.1,1.1,0.2c0.7,0.1,1.4,0.3,2.1,0.4
			c0,1.3,0,2.7,0.1,4.1c-0.7,0-1.6,0-2.3-0.3C256.2,370.1,256,370,255.9,369.9z"/>
		<path fill="#7DBCC8" d="M264.1,405.1c-0.9-3.1-1.7-6.2-2.3-9.3c-0.8-0.2-2-0.5-3.1-0.6c-1.7-0.3-2.4-0.5-2.4-1.3s0-2.5,0.6-2.1
			s0.4,1,1.6,1.5c0.8,0.3,2,0.3,2.8,0.3c-0.3-1.4-0.5-2.9-0.7-4.2c-0.8-0.2-1.9-0.4-3-0.6c-0.5-0.1-0.9-0.2-1.2-0.3
			c-0.1,9.7-0.7,17-0.7,17L264.1,405.1z M262.4,400c0.3,0.2,0.6,1.9,0.5,2.4c0,0-2.2-0.6-3.9-0.8c-1.7-0.3-2.4-0.5-2.4-1.3
			s0-2.5,0.6-2.1s0.4,1,1.6,1.5C260,400.2,262.1,399.8,262.4,400z"/>
		<path fill="#30ABB9" d="M256.3,393.9c0-0.8,0-2.5,0.6-2.1s0.4,1,1.6,1.5c0.8,0.3,2,0.3,2.8,0.3c0.1,0.8,0.3,1.5,0.5,2.3
			c-0.8-0.2-2-0.5-3.1-0.6C256.9,394.9,256.3,394.7,256.3,393.9z"/>
		<path fill="#30ABB9" d="M256.4,383.3c0-1,0-2,0-3c0,0,0.1,0,0.1,0.1c0.6,0.4,0.4,1,1.6,1.5c0.4,0.2,1,0.3,1.6,0.3
			c0.1,0.6,0.1,1.3,0.2,2c-0.5-0.1-1.1-0.2-1.6-0.3C257.3,383.6,256.8,383.5,256.4,383.3z"/>
		<path fill="#30ABB9" d="M256.4,388.4c0-0.8,0-1.7,0-2.6c0.2,0.3,0.4,0.6,1.1,0.9c0.8,0.3,2,0.3,2.8,0.3c0.1,0.7,0.2,1.5,0.3,2.3
			c-0.8-0.2-1.9-0.4-3-0.6C257.1,388.6,256.7,388.5,256.4,388.4z"/>
		<path fill="#30ABB9" d="M256.3,377.6c0-0.8-0.1-1.5-0.1-2.3c0.2,0.2,0.4,0.3,0.7,0.5c0.6,0.3,1.4,0.3,2.1,0.3
			c0,0.7,0.1,1.4,0.2,2.1c-0.7-0.1-1.4-0.3-2.1-0.4C256.8,377.7,256.5,377.7,256.3,377.6z"/>
		<path fill="#30ABB9" d="M256,372.1c0-0.7-0.1-1.5-0.1-2.2c0.2,0.1,0.3,0.2,0.6,0.4c0.6,0.3,1.5,0.3,2.3,0.3c0,0.7,0.1,1.4,0.1,2.1
			c-0.7-0.2-1.5-0.3-2.2-0.4C256.4,372.2,256.2,372.1,256,372.1z"/>
		<path fill="#30ABB9" d="M255.5,365.8c-0.1-1-0.2-2-0.3-2.9c0.3,0.4,0.4,0.8,1.3,1.2c0.6,0.3,1.5,0.3,2.2,0.3c0,0.6,0,1.3,0,2
			c-0.7-0.1-1.4-0.3-2.1-0.4C256.1,365.9,255.8,365.9,255.5,365.8z"/>
	</g>
	<path fill="#7DBCC8" d="M266.9,370.1c0,0-5.6,3.4-8.1,4.1l0.1,2.1c0,0,3-2.8,7.5-5"/>
	<ellipse fill="#8E9F36" cx="270.1" cy="368.1" rx="8.3" ry="8.3"/>
	<ellipse fill="#BAC65E" cx="270.2" cy="368.1" rx="7.6" ry="7.6"/>
	<path fill="#A6B74D" d="M272.2,372.9c-3.7,0.2-6.8-2.7-6.9-6.3c-0.1-2.5,1.2-4.8,3.3-6c-3.6,0.8-6.2,4.1-6,7.8
		c0.2,4.2,3.8,7.5,8,7.4c3.8-0.2,6.8-3,7.3-6.6C276.9,371.2,274.8,372.8,272.2,372.9z"/>
	<path fill="#7DBCC8" d="M256.2,368.1c0,0-4-1.5-4.7-6.8l-1.5-0.4c0,0,0.9,4.5,5.8,9.1L256.2,368.1z"/>
	<ellipse fill="#8E9F36" cx="255" cy="347.3" rx="15.2" ry="15.2"/>
	<ellipse fill="#BAC65E" cx="255.1" cy="347.2" rx="14.4" ry="14.4"/>
	<path fill="#A6B74D" d="M258.7,356.2c-6.8,0.3-12.6-5-12.9-11.9c-0.2-4.7,2.3-9,6.1-11.2c-6.7,1.5-11.5,7.6-11.2,14.6
		c0.3,7.9,7.1,14.1,15,13.8c7.1-0.3,12.7-5.6,13.7-12.4C267.4,353.1,263.4,356,258.7,356.2z"/>
	<path fill="#7DBCC8" d="M257,388.8c0,0-5.5,0.4-6.8-4.9l-0.9,0.2c0,0,1.9,5.4,7.7,6.3V388.8z"/>
	<ellipse fill="#8E9F36" cx="247.3" cy="380.7" rx="6.9" ry="6.9"/>
	
		<ellipse transform="matrix(4.249981e-02 0.9991 -0.9991 4.249981e-02 617.2406 117.3432)" fill="#BAC65E" cx="247.4" cy="380.7" rx="6.2" ry="6.1"/>
	<path fill="#A6B74D" d="M249,384.5c-2.9,0.1-5.4-2.1-5.5-5c-0.1-2,1-3.8,2.6-4.8c-2.8,0.6-4.9,3.2-4.8,6.2c0.1,3.4,3,6,6.4,5.8
		c3-0.1,5.4-2.4,5.8-5.3C252.7,383.2,251,384.4,249,384.5z"/>
</g>
<g id="Green_tree_3">
	<g>
		<path fill="#7DBCC8" d="M478.3,382.6c-0.6-0.1-0.9-0.3-1.2-0.3c0-0.8,0.1-1.6,0.1-2.3c0.7,0.5,2,0.7,2.8,0.7
			c0,0.8,0.1,1.6,0.1,2.5c-0.1,0-0.1,0-0.2,0C478.6,383.2,479.3,382.8,478.3,382.6z"/>
		<path fill="#7DBCC8" d="M478.1,386.8c-0.2-0.3-0.5-0.5-1.2-0.5c0-0.5,0.1-1.1,0.1-1.6c0.9,0.3,2.4,0.7,3.3,0.9
			c0.1,0.7,0.1,1.3,0.2,2C479.7,387.4,478.3,387.1,478.1,386.8z"/>
		<path fill="#7DBCC8" d="M479.5,391.7c-0.8-0.1-0.9,0.1-1.7-0.1c-0.8-0.3-0.4-0.5-1.1-1.1c0,0-0.1,0-0.1-0.1c0-0.7,0.1-1.5,0.1-2.2
			c0.3,0.5,0.6,1,1.1,1.1c1,0.2,2.1,0.3,2.9,0.1c0.1,0.9,0.3,1.8,0.4,2.8c-0.1-0.1-0.2-0.1-0.4-0.2
			C480.1,391.5,480.3,391.9,479.5,391.7z"/>
		<path fill="#7DBCC8" d="M477.7,377.8c-0.1-0.1-0.2-0.1-0.3-0.2c0-0.9,0.1-1.7,0.1-2.5c0.2,0.1,0.5,0.3,0.7,0.5
			c0.6,0.6,1.3,1,1.9,0.9c0,0.7,0,1.4,0,2.2c-0.1,0-0.2,0-0.3,0C478.7,378.7,478.7,378.3,477.7,377.8z"/>
		<path fill="#7DBCC8" d="M477.3,367.9c-0.4-9.4-1.2-11.4-1.2-11.4l1.6,0.5c1.4,4.5,1.7,8.5,1.6,11.3c-0.6,0-1.7-0.8-1.7-0.8
			S477.4,367.7,477.3,367.9z"/>
		<path fill="#7DBCC8" d="M477.4,373.2c0-0.2,0-0.5,0-0.7c0-1,0-2-0.1-2.9c0.3,0.1,0.8,0.2,1.7,0.4c0,0,0.1-0.1,0.1-0.3
			c-0.1,1.6-0.3,2.6-0.3,2.6c2.5-10.5,6.8-13.9,6.8-13.9l-0.4,1c-3.9,5.3-4.6,12-4.6,12s-0.2,0.8-0.4,2.4c-0.4,0-0.8-0.1-1.5-0.1
			C478.1,373.8,477.7,373.4,477.4,373.2z"/>
		<path fill="#7DBCC8" d="M475.8,397.6c0.1-0.9,0.6-4,0.7-5c0.3,0.5,1,0.7,2.5,1.6c1.6,0.9,2,1.3,2.9,1.2c0.2,0.7,0.5,2.3,0.5,2.3
			S475.9,397.6,475.8,397.6z"/>
		<path fill="#30ABB9" d="M479,394.1c-1.5-0.9-2.2-1.1-2.5-1.6c0-0.7,0.1-1.4,0.1-2.1c0,0,0.1,0,0.1,0.1c0.7,0.5,0.3,0.8,1.1,1.1
			c0.8,0.3,0.9,0,1.7,0.1c0.8,0.1,0.5-0.3,1.3,0.3c0.1,0.1,0.3,0.2,0.4,0.2c0.2,1,0.4,2.1,0.6,3.1C481,395.5,480.6,395.1,479,394.1z
			"/>
		<path fill="#30ABB9" d="M477.9,389.3c-0.5-0.1-0.9-0.6-1.1-1.1c0-0.7,0.1-1.3,0.1-2c0.6,0,0.9,0.2,1.2,0.5
			c0.2,0.3,1.6,0.7,2.5,0.8c0.1,0.6,0.2,1.2,0.3,1.9C480.1,389.6,478.9,389.5,477.9,389.3z"/>
		<path fill="#30ABB9" d="M477.1,382.3c0.3,0,0.6,0.2,1.2,0.3c0.9,0.1,0.3,0.5,1.6,0.5c0.1,0,0.1,0,0.2,0c0.1,0.7,0.1,1.5,0.2,2.3
			c-0.9-0.2-2.4-0.6-3.3-0.9C477,383.8,477.1,383.1,477.1,382.3z"/>
		<path fill="#30ABB9" d="M477.2,380c0-0.8,0.1-1.6,0.1-2.4c0.1,0.1,0.2,0.1,0.3,0.2c1.1,0.5,1.1,0.9,2,0.9c0.1,0,0.2,0,0.3,0
			c0,0.6,0,1.3,0,2C479.2,380.7,477.9,380.5,477.2,380z"/>
		<path fill="#30ABB9" d="M478.1,375.7c-0.2-0.2-0.5-0.4-0.7-0.5c0-0.7,0-1.3,0-1.9c0.3,0.2,0.7,0.6,1.3,0.6c0.7,0,1,0.1,1.5,0.1
			c-0.1,0.7-0.2,1.6-0.2,2.6C479.3,376.7,478.7,376.3,478.1,375.7z"/>
		<path fill="#30ABB9" d="M477.3,369.7c0-0.6,0-1.2-0.1-1.8c0.1-0.2,0.3-0.4,0.3-0.4s1.1,0.8,1.7,0.8c0,0.5,0,1-0.1,1.4
			c-0.1,0.2-0.1,0.3-0.1,0.3C478.1,369.9,477.6,369.8,477.3,369.7z"/>
	</g>
	<ellipse fill="#8E9F36" cx="482.1" cy="350.5" rx="13" ry="13"/>
	<ellipse fill="#BAC65E" cx="482.1" cy="350.5" rx="12.2" ry="12.2"/>
	<path fill="#A6B74D" d="M484.9,358.2c-5.8,0-10.5-4.7-10.5-10.5c0-4,2.3-7.5,5.6-9.3c-5.7,1-10,6-10,12c0,6.7,5.5,12.2,12.2,12.2
		c6,0,11-4.3,12-10C492.4,356,488.9,358.2,484.9,358.2z"/>
</g>
<g>
	
		<rect x="1087.2" y="203.6" transform="matrix(-1 5.099902e-03 -5.099902e-03 -1 2220.1924 446.8406)" fill="#82A54F" width="44.7" height="45.4"/>
	
		<rect x="1092.7" y="211" transform="matrix(-1 5.099902e-03 -5.099902e-03 -1 2190.9304 429.3045)" fill="#6B8C3F" width="4.4" height="12.8"/>
	
		<rect x="1102.4" y="211" transform="matrix(-1 5.099902e-03 -5.099902e-03 -1 2210.3306 429.1281)" fill="#6B8C3F" width="4.4" height="12.8"/>
	
		<rect x="1111.2" y="211" transform="matrix(-1 5.099902e-03 -5.099902e-03 -1 2227.9307 429.1684)" fill="#6B8C3F" width="4.4" height="12.8"/>
	
		<rect x="1092.8" y="228.9" transform="matrix(-1 5.099902e-03 -5.099902e-03 -1 2191.2578 465.104)" fill="#6B8C3F" width="4.4" height="12.8"/>
	
		<rect x="1102.4" y="228.9" transform="matrix(-1 5.099902e-03 -5.099902e-03 -1 2210.4573 464.9282)" fill="#6B8C3F" width="4.4" height="12.8"/>
	
		<rect x="1111.3" y="228.8" transform="matrix(-1 5.099902e-03 -5.099902e-03 -1 2228.2573 464.766)" fill="#6B8C3F" width="4.4" height="12.8"/>
	
		<rect x="1121.2" y="211" transform="matrix(-1 5.099902e-03 -5.099902e-03 -1 2247.9304 428.9864)" fill="#6B8C3F" width="4.4" height="12.8"/>
	
		<rect x="1121.3" y="228.8" transform="matrix(-1 5.099902e-03 -5.099902e-03 -1 2248.2551 464.584)" fill="#57783F" width="4.4" height="12.8"/>
	<g>
		<polygon fill="#82A54F" points="1081.7,398.9 1137.5,398.6 1136.6,221.9 1080.9,256.4 		"/>
		
			<rect x="1122.1" y="258.3" transform="matrix(-1 5.099902e-03 -5.099902e-03 -1 2256.0322 553.6811)" fill="#6B8C3F" width="10.5" height="42.8"/>
		
			<rect x="1120.8" y="309.4" transform="matrix(-1 5.099902e-03 -5.099902e-03 -1 2253.6858 655.9444)" fill="#6B8C3F" width="10.5" height="42.8"/>
		
			<rect x="1121.1" y="359.3" transform="matrix(-1 5.099902e-03 -5.099902e-03 -1 2254.5537 751.4434)" fill="#6B8C3F" width="10.5" height="38.5"/>
		
			<rect x="1105.1" y="258.4" transform="matrix(-1 5.099902e-03 -5.099902e-03 -1 2222.0325 553.9892)" fill="#6B8C3F" width="10.5" height="42.8"/>
		
			<rect x="1103.8" y="309.6" transform="matrix(-1 5.099902e-03 -5.099902e-03 -1 2219.6863 656.2547)" fill="#6B8C3F" width="10.5" height="42.8"/>
		
			<rect x="1104.1" y="359.4" transform="matrix(-1 5.099902e-03 -5.099902e-03 -1 2220.5554 751.5518)" fill="#6B8C3F" width="10.5" height="38.5"/>
		<polygon fill="#6B8C3F" points="1098.1,301.4 1089.1,301.4 1088.9,258.6 1097.9,258.6 		"/>
		
			<rect x="1087.8" y="309.7" transform="matrix(-1 5.099902e-03 -5.099902e-03 -1 2187.6865 656.5457)" fill="#6B8C3F" width="10.5" height="42.8"/>
		
			<rect x="1088.1" y="359.5" transform="matrix(-1 5.099902e-03 -5.099902e-03 -1 2188.5559 751.8427)" fill="#6B8C3F" width="10.5" height="38.5"/>
		<polygon fill="#6B8C3F" points="1139.2,221.7 1079,258.1 1078.9,252.5 1139.2,216.1 		"/>
	</g>
	
		<rect x="1094.1" y="192.2" transform="matrix(-1 5.099902e-03 -5.099902e-03 -1 2223.5381 391.0673)" fill="#6B8C3F" width="34.3" height="12.3"/>
</g>
<g id="Green_tree_1">
	<path fill="#7DBCC8" d="M1155.5,392.4c-1.2-0.3-2.6-0.8-3.5-1.1c0.1-1,0.2-2,0.3-3c0.9,0.4,2.3,0.8,3.4,1
		C1155.6,390.3,1155.5,391.3,1155.5,392.4z"/>
	<path fill="#7DBCC8" d="M1155.7,397.6c-1.5-0.1-3.3-0.3-4.5-0.3c0.1-1,0.3-2.2,0.4-3.4c1,0.4,2.6,0.7,3.9,1
		C1155.6,395.8,1155.6,396.7,1155.7,397.6z"/>
	<path fill="#7DBCC8" d="M1159.4,380.9c0.3,0.8,0.7,1.6,1,2.3c-0.9,0.7-1.9,1.4-3,2c-0.5,0.3-0.9,1-1.3,2c-1.2-0.5-2.6-1.4-3.6-1.9
		c0.1-1.5,0.3-3.1,0.3-4.7c0.9,0,2-0.3,2.9-0.6C1156.2,382.8,1157.7,382.4,1159.4,380.9z"/>
	<path fill="#7DBCC8" d="M1164.9,373.4l1,2.2c0,0-1,2.9-3.8,5.9c-0.4-0.6-1-1.3-1.3-2.1C1162.5,377.5,1164.1,375,1164.9,373.4z"/>
	<path fill="#7DBCC8" d="M1155.7,377.5l-2.7,0.4c0-0.7,0.1-1.5,0.1-2.2c0.8,0,1.7-0.1,2.5-0.3
		C1155.6,376.2,1155.7,376.8,1155.7,377.5z"/>
	<path fill="#7DBCC8" d="M1150.4,362.2l2-0.2c0,0,2,3.1,2.9,10.9c-0.7,0-1.5-0.1-2.2-0.1C1153.1,367,1152.4,362.6,1150.4,362.2z"/>
	<path fill="#30ABB9" d="M1155.5,394.9c-1.3-0.2-2.9-0.6-3.9-1c0.1-0.8,0.2-1.7,0.3-2.6c0.9,0.3,2.3,0.8,3.5,1.1
		C1155.5,393.2,1155.5,394,1155.5,394.9z"/>
	<path fill="#30ABB9" d="M1155.7,389.4c-1.1-0.2-2.5-0.6-3.4-1c0.1-1,0.2-2,0.3-3c1,0.5,2.4,1.3,3.6,1.9
		C1155.9,387.8,1155.8,388.5,1155.7,389.4z"/>
	<path fill="#30ABB9" d="M1155.8,379c0,0.4,0,0.7,0.1,1c-0.9,0.3-2.1,0.6-2.9,0.6c0.1-0.9,0.1-1.8,0.1-2.7l2.7-0.4
		C1155.7,378,1155.7,378.5,1155.8,379z"/>
	<path fill="#30ABB9" d="M1155.6,375.5c-0.8,0.1-1.7,0.3-2.5,0.3c0-1,0-2,0-3c0.7,0.1,1.5,0.1,2.2,0.1
		C1155.5,373.7,1155.5,374.6,1155.6,375.5z"/>
	<path fill="#30ABB9" d="M1160.8,379.4c0.4,0.8,0.9,1.5,1.3,2.1c-0.5,0.6-1.1,1.1-1.8,1.7c-0.3-0.7-0.7-1.5-1-2.3
		C1159.9,380.5,1160.3,380,1160.8,379.4z"/>
	<ellipse fill="#8E9F36" cx="1173.8" cy="371.7" rx="11.4" ry="11.4"/>
	<ellipse fill="#BAC65E" cx="1173.9" cy="371.6" rx="10.4" ry="10.4"/>
	<path fill="#A6B74D" d="M1175.9,378.5c-5-0.4-8.8-4.8-8.3-9.8c0.3-3.5,2.5-6.3,5.5-7.6c-5,0.5-9.1,4.5-9.5,9.7
		c-0.5,5.8,3.9,10.9,9.7,11.4c5.2,0.4,9.8-3,11.1-7.8C1182.6,377,1179.4,378.8,1175.9,378.5z"/>
	<ellipse fill="#8E9F36" cx="1158.4" cy="357.8" rx="13.9" ry="13.9"/>
	
		<ellipse transform="matrix(-8.180400e-02 0.9966 -0.9966 -8.180400e-02 1609.9835 -767.1772)" fill="#BAC65E" cx="1158.4" cy="358" rx="12.8" ry="12.9"/>
	<path fill="#A6B74D" d="M1160.9,366.3c-6.2-0.5-10.7-5.9-10.2-12c0.4-4.3,3.1-7.8,6.7-9.4c-6.1,0.6-11.1,5.5-11.6,11.8
		c-0.6,7.1,4.7,13.4,11.9,14c6.3,0.5,12-3.6,13.6-9.5C1169.1,364.5,1165.2,366.6,1160.9,366.3z"/>
</g>
<g>
	<polygon fill="#82A54F" points="1634.5,397.6 1596.2,397.6 1596.2,332.6 1615.2,316.7 1634.5,332.5 	"/>
	<path fill="#6B8C3F" d="M1613,367.3l-4.7,0l-0.1-9.9c0-1.3,1-2.4,2.3-2.4l0,0c1.3,0,2.4,1,2.4,2.3L1613,367.3z"/>
	<path fill="#6B8C3F" d="M1623.2,367.2l-4.7,0l-0.1-9.9c0-1.3,1-2.4,2.3-2.4l0,0c1.3,0,2.4,1,2.4,2.3L1623.2,367.2z"/>
	
		<rect x="1605.5" y="344.1" transform="matrix(-1 3.699922e-03 -3.699922e-03 -1 3232.2546 685.1792)" fill="#6B8C3F" width="20" height="3"/>
	
		<rect x="1605.6" y="365.9" transform="matrix(-1 3.699922e-03 -3.699922e-03 -1 3232.4656 728.7911)" fill="#6B8C3F" width="20" height="3"/>
	<path fill="#6B8C3F" d="M1612.9,345.6l-4.7,0l-0.1-9.9c0-1.3,1-2.4,2.3-2.4l0,0c1.3,0,2.4,1,2.4,2.3L1612.9,345.6z"/>
	<path fill="#6B8C3F" d="M1623.1,345.5l-4.7,0l-0.1-9.9c0-1.3,1-2.4,2.3-2.4l0,0c1.3,0,2.4,1,2.4,2.3L1623.1,345.5z"/>
	<polygon fill="#6B8C3F" points="1613.2,397.6 1605.7,397.6 1605.6,380.6 1613.1,380.6 	"/>
	
		<rect x="1618.5" y="380.6" transform="matrix(-1 3.699922e-03 -3.699922e-03 -1 3248.0457 763.6712)" fill="#6B8C3F" width="9.6" height="8.5"/>
</g>
<g>
	<polygon fill="#27AECB" points="1611.6,397.6 1566.9,397.6 1566.6,353.1 1611.6,353.1 	"/>
	
		<rect x="1572.3" y="359.5" transform="matrix(-1 5.099902e-03 -5.099902e-03 -1 3150.8816 723.7944)" fill="#1D8BB8" width="4.4" height="12.8"/>
	
		<rect x="1582" y="359.5" transform="matrix(-1 5.099902e-03 -5.099902e-03 -1 3170.281 723.618)" fill="#1D8BB8" width="4.4" height="12.8"/>
	
		<rect x="1590.8" y="359.5" transform="matrix(-1 5.099902e-03 -5.099902e-03 -1 3187.8816 723.6564)" fill="#1D8BB8" width="4.4" height="12.8"/>
	
		<rect x="1572.4" y="377.4" transform="matrix(-1 5.099902e-03 -5.099902e-03 -1 3151.2063 759.594)" fill="#1D8BB8" width="4.4" height="12.8"/>
	
		<rect x="1582" y="377.4" transform="matrix(-1 5.099902e-03 -5.099902e-03 -1 3170.406 759.4182)" fill="#1D8BB8" width="4.4" height="12.8"/>
	
		<rect x="1590.9" y="377.3" transform="matrix(-1 5.099902e-03 -5.099902e-03 -1 3188.2061 759.2559)" fill="#1D8BB8" width="4.4" height="12.8"/>
	
		<rect x="1600.8" y="359.4" transform="matrix(-1 5.099902e-03 -5.099902e-03 -1 3207.8813 723.4744)" fill="#1D8BB8" width="4.4" height="12.8"/>
	
		<rect x="1600.9" y="377.2" transform="matrix(-1 5.099902e-03 -5.099902e-03 -1 3208.2056 759.074)" fill="#1D8BB8" width="4.4" height="12.8"/>
	<polygon fill="#1D8BB8" points="1606,353.1 1571.7,353.1 1571.7,340.7 1606,340.7 	"/>
</g>
<g id="Yellow_tree_1_4_">
	<path fill="#513325" d="M1570.5,386.7c0,0-0.5,8.3,0.7,9.8c0.9,1.1-4.8,0.4-4.8,0.4s1.5-7.7,1.4-12.8
		C1567.9,379,1570.5,386.7,1570.5,386.7z"/>
	<g>
		<path fill="#A6BA4D" d="M1559.6,378.2c-0.5,9.7,3.9,12.1,9.6,12.4c5.5,0.3,10.1-1.8,10.6-11.6c0.5-9.7-3.7-18.4-9.2-18.6
			C1564.9,360.3,1560,368.5,1559.6,378.2z"/>
		<path fill="#D3D771" d="M1560.3,377.7c-0.4,9.3,3.7,11.5,8.8,11.8c5.2,0.3,9.4-1.7,9.9-11c0.4-9.3-3.4-17-8.6-17.2
			C1565.3,361,1560.7,368.5,1560.3,377.7z"/>
		<path fill="#A6BA4D" d="M1570.5,361.2c0.2,0,0.4,0.1,0.6,0.2c-4.4,1.2-8,5.7-8.3,13.9c-0.7,15.1,8.2,14.5,6.4,14.3
			c-5.2-0.3-9.3-2.5-8.9-11.8S1565.3,361,1570.5,361.2z"/>
	</g>
</g>
<g>
	<path fill="#27AECB" d="M675.6,398.1c2.7-13.5,9-23.3,23.5-23.3s20.8,9.7,23.5,23.2h18.1c-50.2-116.2-37.1-181-41.6-181
		s8,65-41.5,181C657.5,398.1,675.6,398.1,675.6,398.1z M688.1,352.6l11-50.6l11,50.6H688.1z"/>
	<line fill="none" stroke="#2396B8" stroke-miterlimit="10" x1="665.5" y1="381.2" x2="681.9" y2="381.2"/>
	<line fill="none" stroke="#2396B8" stroke-miterlimit="10" x1="716.8" y1="381.2" x2="733.2" y2="381.2"/>
	<line fill="none" stroke="#2396B8" stroke-miterlimit="10" x1="671.7" y1="367.4" x2="728" y2="367.4"/>
	<path fill="none" stroke="#2396B8" stroke-miterlimit="10" d="M730.4,393.9c-15.8-41.2-31.5-91.8-31.5-156.5
		c0,64.7-15.6,121.2-30.8,156.5"/>
	<path fill="none" stroke="#2396B8" stroke-miterlimit="10" d="M693.5,358.5c-1.6,6.7-3.5,12.7-5.4,18.1"/>
	<path fill="none" stroke="#2396B8" stroke-miterlimit="10" d="M710.7,376.7c-2-5.7-3.9-11.8-5.6-18.2"/>
	<rect x="655.3" y="393.9" fill="#2396B8" width="25.6" height="4.3"/>
	<rect x="717" y="393.9" fill="#2396B8" width="25.6" height="4.3"/>
	<g>
		<g>
			<path fill="#35A8DF" d="M698.5,220.4c0,1.4,0.2,2.5,0.5,2.5s0.5-1.1,0.5-2.5s-0.2-16.5-0.5-16.5S698.5,218.9,698.5,220.4z"/>
			<circle fill="#1D8EB8" cx="699" cy="222.1" r="3.4"/>
			<rect x="677.9" y="324.8" fill="#2396B8" width="42.2" height="11.7"/>
			<rect x="686.9" y="297.2" fill="#2396B8" width="24.2" height="4.8"/>
			<rect x="671.7" y="349.8" fill="#2396B8" width="54.7" height="8.7"/>
		</g>
		<rect x="670.3" y="349.8" fill="#1D8EB8" width="57.1" height="1.6"/>
		<rect x="676.2" y="335.6" fill="#1D8EB8" width="45.4" height="1.6"/>
		<rect x="676.2" y="324.8" fill="#1D8EB8" width="45.4" height="1.6"/>
		<rect x="692" y="272.6" fill="#1D8EB8" width="13.9" height="1.6"/>
		<rect x="695.7" y="247.1" fill="#1D8EB8" width="6.5" height="1.6"/>
		<rect x="670.3" y="357" fill="#1D8EB8" width="57.1" height="1.6"/>
		<rect x="675.2" y="351.4" fill="#1587AF" width="2.5" height="5.6"/>
		<rect x="680.9" y="351.4" fill="#1587AF" width="2.5" height="5.6"/>
		<rect x="686.9" y="351.4" fill="#1587AF" width="2.5" height="5.6"/>
		<rect x="692.7" y="351.4" fill="#1587AF" width="2.5" height="5.6"/>
		<rect x="698.2" y="351.4" fill="#1587AF" width="2.5" height="5.6"/>
		<rect x="703.6" y="351.4" fill="#1587AF" width="2.5" height="5.6"/>
		<rect x="708.9" y="351.4" fill="#1587AF" width="2.5" height="5.6"/>
		<rect x="714.6" y="351.4" fill="#1587AF" width="2.5" height="5.6"/>
		<rect x="720.5" y="351.4" fill="#1587AF" width="2.5" height="5.6"/>
		<rect x="680.9" y="328.5" fill="#1587AF" width="2.5" height="5.6"/>
		<rect x="686.9" y="328.5" fill="#1587AF" width="2.5" height="5.6"/>
		<rect x="692.7" y="328.5" fill="#1587AF" width="2.5" height="5.6"/>
		<rect x="698.2" y="328.5" fill="#1587AF" width="2.5" height="5.6"/>
		<rect x="703.6" y="328.5" fill="#1587AF" width="2.5" height="5.6"/>
		<rect x="708.9" y="328.5" fill="#1587AF" width="2.5" height="5.6"/>
		<rect x="714.6" y="328.5" fill="#1587AF" width="2.5" height="5.6"/>
	</g>
	<ellipse fill="none" stroke="#2396B8" stroke-miterlimit="10" cx="691.3" cy="314.2" rx="0" ry="4.2"/>
	<ellipse fill="none" stroke="#2396B8" stroke-miterlimit="10" cx="707.2" cy="314.2" rx="0" ry="4.8"/>
	<line fill="none" stroke="#2396B8" stroke-miterlimit="10" x1="692.7" y1="285.6" x2="705.4" y2="285.6"/>
	<line fill="none" stroke="#2396B8" stroke-miterlimit="10" x1="695.7" y1="261.6" x2="702.2" y2="261.6"/>
	<line fill="none" stroke="#2396B8" stroke-miterlimit="10" x1="698.2" y1="237.4" x2="699.7" y2="237.4"/>
</g>
</svg>
